<svg id="Layer_1" data-name="Layer 1" xmlns="http://www.w3.org/2000/svg" viewBox="0 0 1450.9792 627.7062"><defs><style>.cls-1{fill:#be4e29;}.cls-2{fill:#d22d62;}.cls-3{fill:#687834;}.cls-4{fill:#3276a8;}.cls-5{fill:#bc3b96;}.cls-6{fill:#555661;}</style></defs><path class="cls-1" d="M1238.8952,428.7443V415.1075h7.4912v1.3711H1240.67v4.6289h5.1767V422.47H1240.67v6.2745Z"/><path class="cls-1" d="M1254.5387,429.1554a3.9421,3.9421,0,0,1-3.5488-1.9541,11.958,11.958,0,0,1,0-10.5469,4.19,4.19,0,0,1,7.0928,0,11.9931,11.9931,0,0,1,0,10.5469A3.9323,3.9323,0,0,1,1254.5387,429.1554Zm0-1.3711a2.4823,2.4823,0,0,0,2.1338-1.4531,11.7584,11.7584,0,0,0,0-8.8155,2.2981,2.2981,0,0,0-4.2773,0,11.77,11.77,0,0,0,0,8.8155A2.4876,2.4876,0,0,0,1254.5387,427.7843Z"/><path class="cls-1" d="M1266.778,429.1554a3.9422,3.9422,0,0,1-3.5489-1.9541,11.9588,11.9588,0,0,1,0-10.5469,4.19,4.19,0,0,1,7.0928,0,11.9922,11.9922,0,0,1,0,10.5469A3.9322,3.9322,0,0,1,1266.778,429.1554Zm0-1.3711a2.4823,2.4823,0,0,0,2.1338-1.4531,11.7584,11.7584,0,0,0,0-8.8155,2.2982,2.2982,0,0,0-4.2774,0,11.7712,11.7712,0,0,0,0,8.8155A2.4877,2.4877,0,0,0,1266.778,427.7843Z"/><path class="cls-1" d="M1274.9811,428.7443V415.1075h3.2314a5.7365,5.7365,0,0,1,3.3213.7754,4.642,4.642,0,0,1,1.628,2.3487,11.4047,11.4047,0,0,1,.5449,3.7246,10.2435,10.2435,0,0,1-.5742,3.582,4.4415,4.4415,0,0,1-4.92,3.2061Zm1.7734-1.5h1.1836a4.0332,4.0332,0,0,0,2.5752-.6426,3.5409,3.5409,0,0,0,1.0977-1.7832,11.77,11.77,0,0,0,.33-3.1367,9.1849,9.1849,0,0,0-.3858-3.0176,3.5471,3.5471,0,0,0-1.1064-1.62,3.8681,3.8681,0,0,0-2.3653-.5655h-1.3291Z"/><path class="cls-2" d="M1246.4635,386.5353a8.0449,8.0449,0,0,1-2.7422.5654,5.3826,5.3826,0,0,1-2.9492-.8564,5.59,5.59,0,0,1-2.0908-2.5508,10.19,10.19,0,0,1-.0088-7.6328,5.6213,5.6213,0,0,1,2.083-2.5586,5.357,5.357,0,0,1,2.9658-.87,7.9406,7.9406,0,0,1,2.7422.5752v1.6192a5.5593,5.5593,0,0,0-2.8115-.8223,2.9657,2.9657,0,0,0-1.9365.7237,5.0255,5.0255,0,0,0-1.41,2.1171,8.3454,8.3454,0,0,0-.5361,3.0215,8.2444,8.2444,0,0,0,.5576,3.0694,5.0362,5.0362,0,0,0,1.4141,2.1035,2.9514,2.9514,0,0,0,1.9111.6992,5.6283,5.6283,0,0,0,2.8115-.8145Z"/><path class="cls-2" d="M1254.5387,387.1007a3.9421,3.9421,0,0,1-3.5488-1.9541,11.958,11.958,0,0,1,0-10.5469,4.19,4.19,0,0,1,7.0928,0,11.9931,11.9931,0,0,1,0,10.5469A3.9323,3.9323,0,0,1,1254.5387,387.1007Zm0-1.3711a2.4823,2.4823,0,0,0,2.1338-1.4531,11.7582,11.7582,0,0,0,0-8.8154,2.298,2.298,0,0,0-4.2773,0,11.77,11.77,0,0,0,0,8.8154A2.4876,2.4876,0,0,0,1254.5387,385.73Z"/><path class="cls-2" d="M1263.3747,386.69V373.0528h7.4912v1.3711h-5.7168v4.6289h5.1767v1.3624h-5.1767V386.69Z"/><path class="cls-2" d="M1275.6149,386.69V373.0528h7.4912v1.3711h-5.7168v4.6289h5.1768v1.3624h-5.1768V386.69Z"/><path class="cls-2" d="M1295.0026,385.19v1.5H1287.64V373.0528h7.2256v1.3711h-5.4512v4.6289h4.9023v1.3624h-4.9023V385.19Z"/><path class="cls-2" d="M1307.2428,385.19v1.5h-7.3623V373.0528h7.2256v1.3711h-5.4512v4.6289h4.9024v1.3624h-4.9024V385.19Z"/><path class="cls-3" d="M1237.3952,345.7v-1.6714a9.0454,9.0454,0,0,0,3.832,1.003,3.5582,3.5582,0,0,0,1.38-.2745,2.12,2.12,0,0,0,.998-.7929,2.0221,2.0221,0,0,0,.3389-1.127,2.1837,2.1837,0,0,0-.4668-1.333,6.0239,6.0239,0,0,0-1.7451-1.3672l-.8994-.5141-.9092-.523a4.0912,4.0912,0,0,1-2.3906-3.5141,3.485,3.485,0,0,1,1.0712-2.5928,4.6067,4.6067,0,0,1,3.334-1.05,9.3514,9.3514,0,0,1,2.82.4282v1.5171a8.0507,8.0507,0,0,0-2.9228-.5825,2.7286,2.7286,0,0,0-1.835.6,1.8361,1.8361,0,0,0-.7021,1.44,1.9106,1.9106,0,0,0,.54,1.3926,5.9151,5.9151,0,0,0,1.3711,1.0156l.6856.4116.8486.523.7285.42a4,4,0,0,1,2.2373,3.4458,3.6707,3.6707,0,0,1-1.1533,2.7168,5.1146,5.1146,0,0,1-3.6895,1.1318,8.4333,8.4333,0,0,1-1.5429-.1372A13.1539,13.1539,0,0,1,1237.3952,345.7Z"/><path class="cls-3" d="M1252.7643,345.9913V333.8541h-4.0889v-1.5h9.96v1.5h-4.0967v12.1372Z"/><path class="cls-3" d="M1265.8952,346.4029a3.9425,3.9425,0,0,1-3.5489-1.9545,11.958,11.958,0,0,1,0-10.5469,4.19,4.19,0,0,1,7.0928,0,11.9922,11.9922,0,0,1,0,10.5469A3.9325,3.9325,0,0,1,1265.8952,346.4029Zm0-1.3715a2.4823,2.4823,0,0,0,2.1338-1.4532,11.7582,11.7582,0,0,0,0-8.8154,2.2982,2.2982,0,0,0-4.2774,0,11.7709,11.7709,0,0,0,0,8.8154A2.4875,2.4875,0,0,0,1265.8952,345.0314Z"/><path class="cls-3" d="M1275.8209,340.1969v5.7944h-1.7744V332.3541h3.6426a7.05,7.05,0,0,1,2.627.3643,2.8189,2.8189,0,0,1,1.3076,1.1015,2.9289,2.9289,0,0,1,.4629,1.5855A4.3848,4.3848,0,0,1,1281.778,337a4.8829,4.8829,0,0,1-.8487,1.4268,5.6279,5.6279,0,0,1-1.56,1.1958l3.9511,6.3686h-2.1171l-3.6084-5.7944Zm0-1.3711h2.4854a4.3748,4.3748,0,0,0,1.2471-.93,3.5409,3.5409,0,0,0,.6172-1.0112,2.916,2.916,0,0,0,.21-1.0674,1.8615,1.8615,0,0,0-.6982-1.5259,4.1709,4.1709,0,0,0-2.5332-.5654h-1.3282Z"/><path class="cls-3" d="M1289.4918,345.9913v-6.3086l-4.0634-7.3286h2.0146l3.0342,5.4087,3.0254-5.4087h1.8174l-4.0547,7.3286v6.3086Z"/><path class="cls-3" d="M1301.7233,345.9913V333.8541h-4.0889v-1.5h9.96v1.5h-4.0967v12.1372Z"/><path class="cls-3" d="M1318.6,344.4913v1.5h-7.3623V332.3541h7.2256v1.3716h-5.4512v4.6284h4.9024v1.3628h-4.9024v4.7744Z"/><path class="cls-3" d="M1330.985,344.4913v1.5h-7.3623V332.3541h1.7744v12.1372Z"/><path class="cls-3" d="M1343.2252,344.4913v1.5h-7.3623V332.3541h1.7744v12.1372Z"/><path class="cls-3" d="M1347.6823,345.9913v-1.3628h3V333.7257h-3v-1.3716h7.7744v1.3716h-3v10.9028h3v1.3628Z"/><path class="cls-3" d="M1361.1569,345.9913h-1.6377V332.3541h1.6035l4.8252,9.0772.5234,1.3545h.042l-.042-1.3545v-9.0772h1.6368v13.6372h-1.6368l-4.6894-8.9316-.6592-1.4312.0342,1.4141Z"/><path class="cls-3" d="M1380.2194,345.9825a9.5724,9.5724,0,0,1-2.6485.42,5.3419,5.3419,0,0,1-5.1259-3.39,10.1842,10.1842,0,0,1-.0166-7.65,5.616,5.616,0,0,1,2.083-2.5586,5.334,5.334,0,0,1,2.957-.87,7.9471,7.9471,0,0,1,2.7432.5742v1.62a5.57,5.57,0,0,0-2.82-.8227,2.9539,2.9539,0,0,0-1.9288.7241,4.9743,4.9743,0,0,0-1.4052,2.1172,8.4518,8.4518,0,0,0-.5323,3.0386,8.1638,8.1638,0,0,0,1.0118,4.0371,3.392,3.392,0,0,0,3.1884,1.8169q.2828,0,.712-.0425V340.6h-1.3545v-1.3628h3.1367Z"/><path class="cls-4" d="M1239.1129,305.733V292.0958h3.2315a5.74,5.74,0,0,1,3.3213.7759,4.64,4.64,0,0,1,1.6279,2.3486,11.4,11.4,0,0,1,.5449,3.7241,10.25,10.25,0,0,1-.5742,3.5831,4.4428,4.4428,0,0,1-4.92,3.2055Zm1.7735-1.5h1.1836a4.0334,4.0334,0,0,0,2.5752-.643,3.5352,3.5352,0,0,0,1.0976-1.7828,11.77,11.77,0,0,0,.33-3.1372,9.1851,9.1851,0,0,0-.3857-3.0171,3.5531,3.5531,0,0,0-1.1065-1.62,3.8685,3.8685,0,0,0-2.3652-.5654h-1.3291Z"/><path class="cls-4" d="M1259.1354,304.233v1.5h-7.3623V292.0958h7.2256v1.3716h-5.4512v4.6284h4.9023v1.3628h-4.9023v4.7744Z"/><path class="cls-4" d="M1263.609,305.4415V303.77a9.0458,9.0458,0,0,0,3.8321,1.003,3.5573,3.5573,0,0,0,1.38-.2745,2.12,2.12,0,0,0,.9981-.7929,2.0221,2.0221,0,0,0,.3389-1.127,2.1837,2.1837,0,0,0-.4668-1.333,6.0246,6.0246,0,0,0-1.7452-1.3672l-.8994-.5141-.9092-.523a4.0914,4.0914,0,0,1-2.3906-3.5141,3.485,3.485,0,0,1,1.0713-2.5928,4.6067,4.6067,0,0,1,3.334-1.05,9.3519,9.3519,0,0,1,2.82.4282V293.63a8.0507,8.0507,0,0,0-2.9228-.5825,2.7284,2.7284,0,0,0-1.835.6,1.8359,1.8359,0,0,0-.7022,1.44,1.91,1.91,0,0,0,.54,1.3926,5.9151,5.9151,0,0,0,1.3711,1.0156l.6855.4116.8487.523.7285.42a4,4,0,0,1,2.2373,3.4458,3.6707,3.6707,0,0,1-1.1533,2.7168,5.1146,5.1146,0,0,1-3.6895,1.1318,8.4352,8.4352,0,0,1-1.543-.1372A13.1574,13.1574,0,0,1,1263.609,305.4415Z"/><path class="cls-4" d="M1275.9782,305.733V304.37h3V293.4674h-3v-1.3716h7.7744v1.3716h-3V304.37h3v1.3628Z"/><path class="cls-4" d="M1296.2741,305.7242a9.573,9.573,0,0,1-2.6485.42,5.3416,5.3416,0,0,1-5.1259-3.39,10.1829,10.1829,0,0,1-.0166-7.65,5.616,5.616,0,0,1,2.083-2.5586,5.3338,5.3338,0,0,1,2.957-.87,7.9471,7.9471,0,0,1,2.7432.5742v1.62a5.5705,5.5705,0,0,0-2.82-.8227,2.9536,2.9536,0,0,0-1.9287.7241,4.9743,4.9743,0,0,0-1.4052,2.1172,8.4518,8.4518,0,0,0-.5323,3.0386,8.1638,8.1638,0,0,0,1.0118,4.0371,3.392,3.392,0,0,0,3.1884,1.8169q.2827,0,.7119-.0425v-4.3975h-1.3545v-1.3628h3.1368Z"/><path class="cls-4" d="M1301.692,305.733h-1.6377V292.0958h1.6036l4.8252,9.0772.5234,1.3545h.042l-.042-1.3545v-9.0772h1.6367V305.733h-1.6367l-4.6895-8.9316-.6591-1.4312.0341,1.4141Z"/><path class="cls-5" d="M1239.3483,258.48v4.9712h-1.7832V249.8141h3.3945a7.3889,7.3889,0,0,1,3.0508.4673,3.3005,3.3005,0,0,1,1.4707,1.3755,4.064,4.064,0,0,1,.51,2.0229,4.6307,4.6307,0,0,1-.6856,2.4429,4.5764,4.5764,0,0,1-1.9121,1.7441,7.5154,7.5154,0,0,1-3.3252.6133Zm0-1.3633h.7627a5.3555,5.3555,0,0,0,2.4424-.4282,2.9775,2.9775,0,0,0,1.23-1.2261,3.5746,3.5746,0,0,0,.4327-1.7314,2.3622,2.3622,0,0,0-.7715-1.86,4.7743,4.7743,0,0,0-3.0342-.6855h-1.0625Z"/><path class="cls-5" d="M1251.3483,257.6569v5.7944h-1.7744V249.8141h3.6426a7.0526,7.0526,0,0,1,2.6269.3642,2.8192,2.8192,0,0,1,1.3076,1.1016,2.9286,2.9286,0,0,1,.4629,1.5854,4.3832,4.3832,0,0,1-.3086,1.5948,4.8821,4.8821,0,0,1-.8486,1.4267,5.6281,5.6281,0,0,1-1.56,1.1958l3.9512,6.3687h-2.1172l-3.6084-5.7944Zm0-1.3711h2.4853a4.3752,4.3752,0,0,0,1.2471-.93,3.5386,3.5386,0,0,0,.6172-1.0112,2.9166,2.9166,0,0,0,.21-1.0674,1.8613,1.8613,0,0,0-.6983-1.5259,4.17,4.17,0,0,0-2.5332-.5654h-1.3281Z"/><path class="cls-5" d="M1265.902,263.8629a3.9424,3.9424,0,0,1-3.5488-1.9546,11.958,11.958,0,0,1,0-10.5469,4.19,4.19,0,0,1,7.0927,0,11.9922,11.9922,0,0,1,0,10.5469A3.9324,3.9324,0,0,1,1265.902,263.8629Zm0-1.3716a2.4823,2.4823,0,0,0,2.1338-1.4531,11.7582,11.7582,0,0,0,0-8.8154,2.2981,2.2981,0,0,0-4.2774,0,11.7709,11.7709,0,0,0,0,8.8154A2.4877,2.4877,0,0,0,1265.902,262.4913Z"/><path class="cls-5" d="M1282.3073,263.4425a9.5724,9.5724,0,0,1-2.6485.42,5.3416,5.3416,0,0,1-5.1259-3.39,10.1842,10.1842,0,0,1-.0166-7.65,5.616,5.616,0,0,1,2.083-2.5586,5.3338,5.3338,0,0,1,2.957-.87,7.9471,7.9471,0,0,1,2.7432.5742v1.62a5.5707,5.5707,0,0,0-2.82-.8228,2.9532,2.9532,0,0,0-1.9287.7242,4.9739,4.9739,0,0,0-1.4052,2.1171,8.4525,8.4525,0,0,0-.5323,3.0386,8.1632,8.1632,0,0,0,1.0118,4.0371,3.3918,3.3918,0,0,0,3.1884,1.8169q.2828,0,.7119-.0425V258.06h-1.3544v-1.3628h3.1367Z"/><path class="cls-5" d="M1288.067,257.6569v5.7944h-1.7744V249.8141h3.6426a7.0529,7.0529,0,0,1,2.627.3642,2.82,2.82,0,0,1,1.3076,1.1016,2.9286,2.9286,0,0,1,.4629,1.5854,4.3853,4.3853,0,0,1-.3086,1.5948,4.8824,4.8824,0,0,1-.8487,1.4267,5.626,5.626,0,0,1-1.56,1.1958l3.9511,6.3687H1293.45l-3.6083-5.7944Zm0-1.3711h2.4854a4.3766,4.3766,0,0,0,1.2471-.93,3.5382,3.5382,0,0,0,.6171-1.0112,2.9145,2.9145,0,0,0,.21-1.0674,1.8612,1.8612,0,0,0-.6982-1.5259,4.17,4.17,0,0,0-2.5332-.5654h-1.3282Z"/><path class="cls-5" d="M1299.2184,263.4513h-1.7061l4.2-13.6372h1.8l4.2266,13.6372H1305.87l-.9346-3h-4.8Zm1.3457-4.3628h3.9775l-1.6464-5.1773-.3858-1.3715-.3428,1.3715Z"/><path class="cls-5" d="M1311.39,263.4513h-1.44V249.8141h1.792l3.1455,8.9829,3.1456-8.9829h1.74v13.6372h-1.6377V254.76l.043-1.2h-.043l-.3857,1.2-2.1084,5.9658h-1.7745l-2.1337-5.9658-.3428-1.2h-.0518l.0518,1.2Z"/><path class="cls-5" d="M1323.63,263.4513h-1.44V249.8141h1.792l3.1455,8.9829,3.1455-8.9829h1.74v13.6372h-1.6376V254.76l.0429-1.2h-.0429l-.3858,1.2-2.1084,5.9658h-1.7744l-2.1338-5.9658-.3428-1.2h-.0517l.0517,1.2Z"/><path class="cls-5" d="M1335.45,263.4513v-1.3628h3V251.1857h-3v-1.3716h7.7745v1.3716h-3v10.9028h3v1.3628Z"/><path class="cls-5" d="M1348.9235,263.4513h-1.6377V249.8141h1.6035l4.8252,9.0771.5234,1.3545h.042l-.042-1.3545v-9.0771h1.6368v13.6372h-1.6368l-4.6894-8.9317-.6592-1.4311.0342,1.4141Z"/><path class="cls-5" d="M1367.986,263.4425a9.5724,9.5724,0,0,1-2.6485.42,5.3419,5.3419,0,0,1-5.1259-3.39,10.1842,10.1842,0,0,1-.0166-7.65,5.616,5.616,0,0,1,2.083-2.5586,5.334,5.334,0,0,1,2.957-.87,7.9471,7.9471,0,0,1,2.7432.5742v1.62a5.5706,5.5706,0,0,0-2.82-.8228,2.9534,2.9534,0,0,0-1.9288.7242,4.9739,4.9739,0,0,0-1.4052,2.1171,8.4525,8.4525,0,0,0-.5323,3.0386,8.1632,8.1632,0,0,0,1.0118,4.0371,3.3918,3.3918,0,0,0,3.1884,1.8169q.2828,0,.712-.0425V258.06h-1.3545v-1.3628h3.1367Z"/><g id="Cat_1" data-name="Cat 1"><rect class="cls-5" x="681.2951" y="90.582" width="37.8384" height="37.8384"/><rect class="cls-5" x="729.9446" y="90.582" width="37.8384" height="37.8384"/><rect class="cls-5" x="778.594" y="90.582" width="37.8384" height="37.8384"/><rect class="cls-5" x="827.2434" y="90.582" width="37.8384" height="37.8384"/><rect class="cls-5" x="875.8928" y="90.582" width="37.8384" height="37.8384"/><rect class="cls-5" x="924.5422" y="90.582" width="37.8384" height="37.8384"/><rect class="cls-5" x="973.1917" y="90.582" width="37.8384" height="37.8384"/><rect class="cls-5" x="1021.8411" y="90.582" width="37.8384" height="37.8384"/><rect class="cls-5" x="1070.4905" y="90.582" width="37.8384" height="37.8384"/><rect class="cls-5" x="1119.1399" y="90.582" width="37.8384" height="37.8384"/><rect class="cls-5" x="681.2951" y="137.8801" width="37.8384" height="37.8384"/><rect class="cls-5" x="729.9446" y="137.8801" width="37.8384" height="37.8384"/><rect class="cls-5" x="778.594" y="137.8801" width="37.8384" height="37.8384"/><rect class="cls-5" x="827.2434" y="137.8801" width="37.8384" height="37.8384"/><rect class="cls-5" x="875.8928" y="137.8801" width="37.8384" height="37.8384"/><rect class="cls-5" x="924.5422" y="137.8801" width="37.8384" height="37.8384"/><rect class="cls-5" x="973.1917" y="137.8801" width="37.8384" height="37.8384"/><rect class="cls-5" x="1021.8411" y="137.8801" width="37.8384" height="37.8384"/><rect class="cls-5" x="1070.4905" y="137.8801" width="37.8384" height="37.8384"/><rect class="cls-5" x="1119.1399" y="137.8801" width="37.8384" height="37.8384"/><rect class="cls-5" x="681.2951" y="185.1781" width="37.8384" height="37.8384"/><rect class="cls-5" x="729.9446" y="185.1781" width="37.8384" height="37.8384"/><rect class="cls-5" x="778.594" y="185.1781" width="37.8384" height="37.8384"/><rect class="cls-5" x="827.2434" y="185.1781" width="37.8384" height="37.8384"/><rect class="cls-5" x="875.8928" y="185.1781" width="37.8384" height="37.8384"/><rect class="cls-5" x="924.5422" y="185.1781" width="37.8384" height="37.8384"/><rect class="cls-5" x="973.1917" y="185.1781" width="37.8384" height="37.8384"/><rect class="cls-5" x="1021.8411" y="185.1781" width="37.8384" height="37.8384"/><rect class="cls-5" x="1070.4905" y="185.1781" width="37.8384" height="37.8384"/><rect class="cls-5" x="1119.1399" y="185.1781" width="37.8384" height="37.8384"/><rect class="cls-5" x="681.2951" y="232.4762" width="37.8384" height="37.8384"/><rect class="cls-5" x="729.9446" y="232.4762" width="37.8384" height="37.8384"/><rect class="cls-5" x="778.594" y="232.4762" width="37.8384" height="37.8384"/></g><rect class="cls-1" x="1207.0077" y="413.1356" width="19.0546" height="19.0546"/><rect class="cls-2" x="1207.0077" y="372.0023" width="19.0546" height="19.0546"/><rect class="cls-3" x="1207.0077" y="330.869" width="19.0546" height="19.0546"/><rect class="cls-4" x="1207.0077" y="289.7358" width="19.0546" height="19.0546"/><rect class="cls-5" x="1207.0077" y="248.6025" width="19.0546" height="19.0546"/><g id="Cat_2" data-name="Cat 2"><rect class="cls-4" x="827.2434" y="232.4762" width="37.8384" height="37.8384"/><rect class="cls-4" x="875.8928" y="232.4762" width="37.8384" height="37.8384"/><rect class="cls-4" x="924.5422" y="232.4762" width="37.8384" height="37.8384"/><rect class="cls-4" x="973.1917" y="232.4762" width="37.8384" height="37.8384"/><rect class="cls-4" x="1021.8411" y="232.4762" width="37.8384" height="37.8384"/><rect class="cls-4" x="1070.4905" y="232.4762" width="37.8384" height="37.8384"/><rect class="cls-4" x="1119.1399" y="232.4762" width="37.8384" height="37.8384"/><rect class="cls-4" x="681.2951" y="279.7742" width="37.8384" height="37.8384"/><rect class="cls-4" x="729.9446" y="279.7742" width="37.8384" height="37.8384"/><rect class="cls-4" x="778.594" y="279.7742" width="37.8384" height="37.8384"/><rect class="cls-4" x="827.2434" y="279.7742" width="37.8384" height="37.8384"/><rect class="cls-4" x="875.8928" y="279.7742" width="37.8384" height="37.8384"/><rect class="cls-4" x="924.5422" y="279.7742" width="37.8384" height="37.8384"/><rect class="cls-4" x="973.1917" y="279.7742" width="37.8384" height="37.8384"/><rect class="cls-4" x="1021.8411" y="279.7742" width="37.8384" height="37.8384"/><rect class="cls-4" x="1070.4905" y="279.7742" width="37.8384" height="37.8384"/><rect class="cls-4" x="1119.1399" y="279.7742" width="37.8384" height="37.8384"/><rect class="cls-4" x="681.2951" y="327.0723" width="37.8384" height="37.8384"/><rect class="cls-4" x="729.9446" y="327.0723" width="37.8384" height="37.8384"/><rect class="cls-4" x="778.594" y="327.0723" width="37.8384" height="37.8384"/><rect class="cls-4" x="827.2434" y="327.0723" width="37.8384" height="37.8384"/><rect class="cls-4" x="875.8928" y="327.0723" width="37.8384" height="37.8384"/><rect class="cls-4" x="924.5422" y="327.0723" width="37.8384" height="37.8384"/><rect class="cls-4" x="973.1917" y="327.0723" width="37.8384" height="37.8384"/><rect class="cls-4" x="1021.8411" y="327.0723" width="37.8384" height="37.8384"/><rect class="cls-4" x="1070.4905" y="327.0723" width="37.8384" height="37.8384"/><rect class="cls-4" x="1119.1399" y="327.0723" width="37.8384" height="37.8384"/><rect class="cls-4" x="681.2951" y="374.3703" width="37.8384" height="37.8384"/><rect class="cls-4" x="729.9446" y="374.3703" width="37.8384" height="37.8384"/><rect class="cls-4" x="778.594" y="374.3703" width="37.8384" height="37.8384"/><rect class="cls-4" x="827.2434" y="374.3703" width="37.8384" height="37.8384"/><rect class="cls-4" x="875.8928" y="374.3703" width="37.8384" height="37.8384"/></g><g id="Cat_3" data-name="Cat 3"><rect class="cls-3" x="924.5422" y="374.3703" width="37.8384" height="37.8384"/><rect class="cls-3" x="973.1917" y="374.3703" width="37.8384" height="37.8384"/><rect class="cls-3" x="1021.8411" y="374.3703" width="37.8384" height="37.8384"/><rect class="cls-3" x="1070.4905" y="374.3703" width="37.8384" height="37.8384"/><rect class="cls-3" x="1119.1399" y="374.3703" width="37.8384" height="37.8384"/><rect class="cls-3" x="681.2951" y="421.6684" width="37.8384" height="37.8384"/><rect class="cls-3" x="729.9446" y="421.6684" width="37.8384" height="37.8384"/><rect class="cls-3" x="778.594" y="421.6684" width="37.8384" height="37.8384"/><rect class="cls-3" x="827.2434" y="421.6684" width="37.8384" height="37.8384"/><rect class="cls-3" x="875.8928" y="421.6684" width="37.8384" height="37.8384"/><rect class="cls-3" x="924.5422" y="421.6684" width="37.8384" height="37.8384"/><rect class="cls-3" x="973.1917" y="421.6684" width="37.8384" height="37.8384"/><rect class="cls-3" x="1021.8411" y="421.6684" width="37.8384" height="37.8384"/><rect class="cls-3" x="1070.4905" y="421.6684" width="37.8384" height="37.8384"/><rect class="cls-3" x="1119.1399" y="421.6684" width="37.8384" height="37.8384"/><rect class="cls-3" x="681.2951" y="468.9664" width="37.8384" height="37.8384"/><rect class="cls-3" x="729.9446" y="468.9664" width="37.8384" height="37.8384"/><rect class="cls-3" x="778.594" y="468.9664" width="37.8384" height="37.8384"/><rect class="cls-3" x="827.2434" y="468.9664" width="37.8384" height="37.8384"/><rect class="cls-3" x="875.8928" y="468.9664" width="37.8384" height="37.8384"/></g><g id="Cat_4" data-name="Cat 4"><rect class="cls-2" x="924.5422" y="468.9664" width="37.8384" height="37.8384"/><rect class="cls-2" x="973.1917" y="468.9664" width="37.8384" height="37.8384"/><rect class="cls-2" x="1021.8411" y="468.9664" width="37.8384" height="37.8384"/><rect class="cls-2" x="1070.4905" y="468.9664" width="37.8384" height="37.8384"/><rect class="cls-2" x="1119.1399" y="468.9664" width="37.8384" height="37.8384"/><rect class="cls-2" x="681.2951" y="516.2645" width="37.8384" height="37.8384"/><rect class="cls-2" x="729.9446" y="516.2645" width="37.8384" height="37.8384"/></g><g id="Cat_5" data-name="Cat 5"><rect class="cls-1" x="778.594" y="516.2645" width="37.8384" height="37.8384"/><rect class="cls-1" x="827.2434" y="516.2645" width="37.8384" height="37.8384"/><rect class="cls-1" x="875.8928" y="516.2645" width="37.8384" height="37.8384"/><rect class="cls-1" x="924.5422" y="516.2645" width="37.8384" height="37.8384"/><rect class="cls-1" x="973.1917" y="516.2645" width="37.8384" height="37.8384"/><rect class="cls-1" x="1021.8411" y="516.2645" width="37.8384" height="37.8384"/><rect class="cls-1" x="1070.4905" y="516.2645" width="37.8384" height="37.8384"/><rect class="cls-1" x="1119.1399" y="516.2645" width="37.8384" height="37.8384"/></g><path class="cls-6" d="M125.88,317.6129a31.0433,31.0433,0,0,1-12.2485-2.1616,26.2081,26.2081,0,0,1-8.7769-6.0913,38.2647,38.2647,0,0,1-6.4848-9.4976q-2.751-5.5663-5.502-12.3794H63.9171l-6.812,23.9727a2.653,2.653,0,0,0-.1313.8515v.8516a3.756,3.756,0,0,0,.7861,2.4238,3.1642,3.1642,0,0,0,2.62.9825h6.9429v1.0478H39.944v-1.0478h7.4668a8.6921,8.6921,0,0,0,4.9126-1.6377,7.7153,7.7153,0,0,0,3.2095-4.3887l20.0429-66.1548q-1.4429-2.4873-3.34-5.5674a46.74,46.74,0,0,0-4.1265-5.6987,28.6527,28.6527,0,0,0-4.5849-4.3882,7.6923,7.6923,0,0,0-4.585-1.7685v-1.0484H82.65a19.8318,19.8318,0,0,1,8.5806,1.7686,24.8351,24.8351,0,0,1,6.55,4.4541,28.4759,28.4759,0,0,1,4.7818,5.96,45.9313,45.9313,0,0,1,3.144,6.1572q1.9644,4.7162,4.2573,10.3487,2.29,5.6345,4.8472,11.7246,2.5539,6.0915,5.1743,12.2485,2.6192,6.159,4.978,11.79,5.6309,13.3623,11.5279,27.248ZM64.31,286.4347H92.3439L76.362,246.611Z"/><path class="cls-6" d="M223.08,317.6129H211.5524a33.5661,33.5661,0,0,1-10.8076-1.5063,18.7182,18.7182,0,0,1-7.14-4.1924,15.3884,15.3884,0,0,1-3.93-6.2222,23.874,23.874,0,0,1-1.1792-7.5981v-36.418a23.8369,23.8369,0,0,0-.5893-5.24,12.1876,12.1876,0,0,0-2.0308-4.5854,3.9264,3.9264,0,0,0-2.03-1.2441,9.5606,9.5606,0,0,0-2.4238-.3277,3.873,3.873,0,0,0-2.227.7207,10.564,10.564,0,0,0-1.9649,1.7681,9.0787,9.0787,0,0,0-1.9648,3.2754,39.4929,39.4929,0,0,0-1.3755,4.5195,37.8436,37.8436,0,0,0-.8516,4.7813,36.3412,36.3412,0,0,0-.2622,3.93v47.2911h9.8252v1.0478h-46.374v-1.0478h9.8252V250.9337h-9.9561v-1.0478q3.6658,0,8.9077-.1309,5.2383-.1288,10.48-.4585,5.2383-.326,9.8907-.8516a47.2176,47.2176,0,0,0,7.4013-1.31v9.956a17.7368,17.7368,0,0,1,2.2271-3.6679,17.1828,17.1828,0,0,1,3.144-2.8819,20.7686,20.7686,0,0,1,6.6157-3.7993,22.8529,22.8529,0,0,1,7.4014-1.1787,57.8618,57.8618,0,0,1,8.3838.6548,19.34,19.34,0,0,1,7.86,2.8818,14.5117,14.5117,0,0,1,5.24,6.1572,24.5472,24.5472,0,0,1,1.1138,2.9473,10.5588,10.5588,0,0,1,.4585,3.0786V299.797q0,7.7307,1.7685,12.2485t6.0913,4.52Z"/><path class="cls-6" d="M299.06,316.5651v1.0478H265.2619v-8.1221l-.917.524q-4.8488,2.7509-10.7422,5.4365a27.9508,27.9508,0,0,1-11.6592,2.6855h-.6548a14.3583,14.3583,0,0,1-5.3711-1.0478,14.938,14.938,0,0,1-4.7158-3.0132,14.3086,14.3086,0,0,1-3.3408-4.8467,16.3464,16.3464,0,0,1-1.2442-6.55,12.7267,12.7267,0,0,1,.6548-4.061,17.49,17.49,0,0,1,1.7032-3.668,15.1354,15.1354,0,0,1,2.4887-2.9472,40.48,40.48,0,0,1,3.7993-3.2095q2.094-1.5726,4.3882-3.0786,2.29-1.5045,4.52-2.6856,4.9767-2.88,10.5454-5.6328,5.5663-2.751,10.5459-5.3711V268.75a59.4755,59.4755,0,0,0-.3931-6.812,17.4822,17.4822,0,0,0-1.834-6.1572,11.5776,11.5776,0,0,0-4.1265-4.4541,13.2081,13.2081,0,0,0-7.14-1.7027,26.959,26.959,0,0,0-3.2095.1963,10.38,10.38,0,0,0-3.0786.8516,6.3441,6.3441,0,0,0-2.1616,1.6372,3.936,3.936,0,0,0,.5239,5.6987,38.0655,38.0655,0,0,0,3.4063,2.3579,17.4764,17.4764,0,0,1,3.4057,2.751,5.6336,5.6336,0,0,1,1.5069,4.061,8.0789,8.0789,0,0,1-2.8164,6.55,9.8157,9.8157,0,0,1-6.4849,2.358,11.8532,11.8532,0,0,1-4.3882-.8516,13.24,13.24,0,0,1-6.812-6.0918,9.6042,9.6042,0,0,1-1.1138-4.585,11.8183,11.8183,0,0,1,3.2095-8.646,22.2077,22.2077,0,0,1,7.9258-5.1089,39.6128,39.6128,0,0,1,10.0215-2.4233,86.8758,86.8758,0,0,1,9.4975-.59,54.2606,54.2606,0,0,1,9.8247.9174,29.9918,29.9918,0,0,1,9.0391,3.1436,18.6347,18.6347,0,0,1,6.6811,6.2227,17.9233,17.9233,0,0,1,2.62,10.0214v48.47ZM260.5456,310.67q1.0473-.5221,2.3579-1.1792,1.308-.654,2.3584-1.31V273.3351a17.2488,17.2488,0,0,0-5.24,3.7334,24.6368,24.6368,0,0,0-3.9956,5.4365,28.9912,28.9912,0,0,0-2.5542,6.4844,26.8077,26.8077,0,0,0-.917,6.8774v8.1221a7.2747,7.2747,0,0,0,1.9649,4.7817,5.666,5.666,0,0,0,4.3227,2.2925A3.761,3.761,0,0,0,260.5456,310.67Z"/><path class="cls-6" d="M333.2487,307.0021a16.0547,16.0547,0,0,0,3.4062,5.6982,11.848,11.848,0,0,0,4.4536,3.0132,13.43,13.43,0,0,0,4.5855.8516v1.0478H331.0216a54.8588,54.8588,0,0,1-10.873-.917,16.5509,16.5509,0,0,1-7.2046-3.144,12.1543,12.1543,0,0,1-3.93-5.96,32.11,32.11,0,0,1-1.1792-9.4975v-47.16H298.01v-1.0478h4.1919a22.4751,22.4751,0,0,0,10.6763-2.751,36.2346,36.2346,0,0,0,9.1045-6.812,38.5771,38.5771,0,0,0,6.3535-8.5806,17.2987,17.2987,0,0,0,2.4238-7.9253h1.1787v26.0689h11.5283v1.0478H331.9386V297.963A26.3694,26.3694,0,0,0,333.2487,307.0021Z"/><path class="cls-6" d="M410.0143,255.2569a28.339,28.339,0,0,1,9.3667,10.6763q3.8621,7.1418,3.8643,17.3579,0,10.218-3.8643,17.4229a27.1347,27.1347,0,0,1-9.3667,10.6108,67.8745,67.8745,0,0,1-7.14,4.1919,32.86,32.86,0,0,1-5.502,2.1616,23.2447,23.2447,0,0,1-5.1089.8516q-2.5546.1288-6.0913.1309h-1.31q-3.5368,0-6.2226-.1309a26.6467,26.6467,0,0,1-5.4365-.8516,34.1156,34.1156,0,0,1-5.83-2.1616,60.2012,60.2012,0,0,1-7.27-4.1919,27.1151,27.1151,0,0,1-9.3662-10.6108q-3.8658-7.2035-3.8648-17.4229t3.8648-17.3579a28.3177,28.3177,0,0,1,9.3662-10.6763,63.9125,63.9125,0,0,1,7.205-4.1918,35.3306,35.3306,0,0,1,5.5679-2.1617,23.2455,23.2455,0,0,1,5.1089-.8515q2.5539-.129,6.0913-.1309h2.0962q3.5368,0,6.0913.1309a23.2445,23.2445,0,0,1,5.1089.8515,33.2445,33.2445,0,0,1,5.502,2.1617A68.2427,68.2427,0,0,1,410.0143,255.2569Zm-17.5537,58.4258a14.9972,14.9972,0,0,0,1.9648-4.7812,53.6378,53.6378,0,0,0,1.2447-7.0742q.4571-3.9939.5893-8.7115.129-4.716.1309-9.8247,0-5.1093-.1963-9.8252t-.6553-8.7114a40.0527,40.0527,0,0,0-1.3755-7.0088,11.86,11.86,0,0,0-2.3579-4.5849q-2.8828-3.1436-4.3887-3.668a7.7525,7.7525,0,0,0-2.2924-.5239,8.3751,8.3751,0,0,0-2.3579.5239q-1.5719.5251-4.3228,3.668a11.809,11.809,0,0,0-2.3579,4.5849,43.6382,43.6382,0,0,0-1.4414,7.0088,85.0447,85.0447,0,0,0-.6548,8.7114q-.1318,4.7162-.1309,9.8252t.1309,9.8247a84.9921,84.9921,0,0,0,.6548,8.7115,43.551,43.551,0,0,0,1.4414,7.0088,13.1452,13.1452,0,0,0,2.3579,4.7158,15.2576,15.2576,0,0,0,3.7334,3.0132,6.8,6.8,0,0,0,2.9473,1.0478h1.0483Q389.7093,317.6129,392.4606,313.6827Z"/><path class="cls-6" d="M505.25,257.0909a27.4646,27.4646,0,0,1,1.7031-2.62q.7858-1.0465,1.7026-2.0957a12.8066,12.8066,0,0,1,1.9653-1.834,20.7615,20.7615,0,0,1,6.6153-3.7993,22.8545,22.8545,0,0,1,7.4013-1.1787,52.6964,52.6964,0,0,1,8.1221.6548,19.1426,19.1426,0,0,1,7.5982,2.8818,14.5133,14.5133,0,0,1,5.24,6.1572,24.6123,24.6123,0,0,1,1.1133,2.9473,10.5387,10.5387,0,0,1,.4585,3.0786V299.797q0,7.7307,1.7685,12.2485t6.0913,4.52v1.0478H543.5016a32.9632,32.9632,0,0,1-10.7422-1.5063,17.57,17.57,0,0,1-6.9429-4.1924,15.3921,15.3921,0,0,1-3.7334-6.2222,25.1425,25.1425,0,0,1-1.1137-7.5981v-36.418a23.8069,23.8069,0,0,0-.5894-5.24,12.1868,12.1868,0,0,0-2.03-4.5854,3.9286,3.9286,0,0,0-2.0308-1.2441,9.5576,9.5576,0,0,0-2.4234-.3277,3.8709,3.8709,0,0,0-2.227.7207,10.5446,10.5446,0,0,0-1.9648,1.7681,9.6356,9.6356,0,0,0-2.0308,3.9956,55.2818,55.2818,0,0,0-1.4409,6.0259q-.59,3.2117-.8516,6.2226-.2637,3.0155-.2617,4.585v26.2q0,7.7307,1.7681,12.2485t6.0918,4.52v1.0478H501.45a32.9608,32.9608,0,0,1-10.7417-1.5063,17.5627,17.5627,0,0,1-6.9428-4.1924,15.3965,15.3965,0,0,1-3.7339-6.2222,25.155,25.155,0,0,1-1.1133-7.5981v-36.418a23.837,23.837,0,0,0-.5894-5.24,12.1875,12.1875,0,0,0-2.0307-4.5854,3.9268,3.9268,0,0,0-2.03-1.2441,9.5606,9.5606,0,0,0-2.4238-.3277,3.8733,3.8733,0,0,0-2.2271.7207,10.56,10.56,0,0,0-1.9648,1.7681,9.08,9.08,0,0,0-1.9649,3.2754,39.4731,39.4731,0,0,0-1.3754,4.5195,37.8258,37.8258,0,0,0-.8516,4.7813,36.3155,36.3155,0,0,0-.2622,3.93v47.2911h9.8252v1.0478H426.65v-1.0478h9.8252V249.8859h-9.9561V248.838q3.6657,0,8.9077-.1309,5.2383-.13,10.48-.4585,5.2383-.3258,9.8906-.8515a47.2176,47.2176,0,0,0,7.4014-1.31v11.0039a17.7367,17.7367,0,0,1,2.227-3.6679,17.1837,17.1837,0,0,1,3.1441-2.8819,20.7686,20.7686,0,0,1,6.6157-3.7993,22.8529,22.8529,0,0,1,7.4014-1.1787,52.6962,52.6962,0,0,1,8.122.6548,19.1454,19.1454,0,0,1,7.5982,2.8818,14.5157,14.5157,0,0,1,5.24,6.1572q.2609.657.524,1.3755.2615.7215.5239,1.3755a2.7837,2.7837,0,0,1,.5244-.6548A.3807.3807,0,0,0,505.25,257.0909Z"/><path class="cls-6" d="M635.8551,249.8859v1.0478H634.152a14.8526,14.8526,0,0,0-5.502.8516,9.6275,9.6275,0,0,0-3.4062,2.227,10.76,10.76,0,0,0-2.03,2.9478q-.7213,1.5717-1.2446,3.0127l-28.0337,70.74a21.4449,21.4449,0,0,1-3.7993,6.0259,25.2678,25.2678,0,0,1-5.1089,4.3887,23.77,23.77,0,0,1-5.6328,2.6855,17.4882,17.4882,0,0,1-5.24.917,11.8913,11.8913,0,0,1-4.3882-.8516,12.3182,12.3182,0,0,1-6.6158-6.1572,10.7945,10.7945,0,0,1-1.0478-4.7812,11.5478,11.5478,0,0,1,.9824-4.7164A12.0057,12.0057,0,0,1,565.77,324.36a13.3872,13.3872,0,0,1,3.93-2.62,11.8642,11.8642,0,0,1,10.7422.6552,10.4648,10.4648,0,0,1,4.1919,4.7813l2.2271,4.8472q1.0473,1.8324,2.227,1.8339a2.5046,2.5046,0,0,0,1.834-1.1137,21.1282,21.1282,0,0,0,1.5718-2.1612l5.1094-12.9692q-1.05-1.9652-3.0786-5.83-2.0325-3.8621-4.7159-8.9077-2.6865-5.042-5.83-10.873-3.1441-5.8279-6.4189-11.5938-3.2762-5.7627-6.4849-11.0693-3.2109-5.3057-6.0258-9.4322a54.2992,54.2992,0,0,0-5.1089-6.55q-2.294-2.4228-3.6026-2.4238h-.917v-1.0478h4.0611q7.467,0,12.7724.1967a36.24,36.24,0,0,1,9.17,1.3755,18.8471,18.8471,0,0,1,6.6811,3.5366,22.8886,22.8886,0,0,1,5.1743,6.6812L609,290.3649l11.6587-30.13a7.7936,7.7936,0,0,0,.59-2.2925c.0429-.6553.0654-1.2.0654-1.6377a5.7887,5.7887,0,0,0-.6553-2.9473,4.4124,4.4124,0,0,0-1.5717-1.6377,5.2677,5.2677,0,0,0-1.9649-.6547,15.3269,15.3269,0,0,0-1.834-.1314h-2.62v-1.0478Z"/><path class="cls-6" d="M321.3288,382.2569a28.3351,28.3351,0,0,1,9.3667,10.6758q3.8621,7.1425,3.8642,17.3584,0,10.2174-3.8642,17.4229a27.131,27.131,0,0,1-9.3667,10.61,67.8909,67.8909,0,0,1-7.14,4.1924,32.8507,32.8507,0,0,1-5.5019,2.1611,23.2162,23.2162,0,0,1-5.1089.8516q-2.5548.1288-6.0913.1309h-1.31q-3.5368,0-6.2227-.1309a26.6122,26.6122,0,0,1-5.4365-.8516,34.1143,34.1143,0,0,1-5.83-2.1611,60.2288,60.2288,0,0,1-7.2705-4.1924,27.1107,27.1107,0,0,1-9.3662-10.61q-3.8656-7.2042-3.8647-17.4229t3.8647-17.3584a28.3129,28.3129,0,0,1,9.3662-10.6758,63.9268,63.9268,0,0,1,7.2051-4.1923,35.2721,35.2721,0,0,1,5.5679-2.1612,23.214,23.214,0,0,1,5.1089-.8515q2.5539-.129,6.0913-.1309h2.0962q3.5368,0,6.0913.1309a23.216,23.216,0,0,1,5.1089.8515,33.1911,33.1911,0,0,1,5.5019,2.1612A68.2593,68.2593,0,0,1,321.3288,382.2569ZM303.775,440.6827a14.9948,14.9948,0,0,0,1.9649-4.7812,53.6537,53.6537,0,0,0,1.2446-7.0742q.457-3.9946.5894-8.712.1289-4.7153.1308-9.8242,0-5.1093-.1963-9.8252t-.6552-8.7119a40.08,40.08,0,0,0-1.3755-7.0088A11.8655,11.8655,0,0,0,303.12,380.16q-2.8829-3.1436-4.3887-3.668a7.7492,7.7492,0,0,0-2.2925-.5234,8.3707,8.3707,0,0,0-2.3579.5234q-1.5717.5259-4.3227,3.668a11.8114,11.8114,0,0,0-2.358,4.5849,43.6607,43.6607,0,0,0-1.4414,7.0088,85.0476,85.0476,0,0,0-.6547,8.7119q-.1318,4.7154-.1309,9.8252,0,5.108.1309,9.8242a85.0037,85.0037,0,0,0,.6547,8.712,43.5711,43.5711,0,0,0,1.4414,7.0088,13.1436,13.1436,0,0,0,2.358,4.7158,15.2646,15.2646,0,0,0,3.7334,3.0127,6.7934,6.7934,0,0,0,2.9472,1.0478h1.0484Q301.0239,444.6124,303.775,440.6827Z"/><path class="cls-6" d="M386.9581,372.4318q-1.7043,0-4.7163-.1963a21.1312,21.1312,0,0,1-5.895-1.2452,13.621,13.621,0,0,1-5.0434-3.2089,8.238,8.238,0,0,1-2.1612-6.0918,6.54,6.54,0,0,1,1.0479-3.6026,5.9481,5.9481,0,0,0,1.0478-3.209,1.39,1.39,0,0,0-.8515-1.2451,4.5489,4.5489,0,0,0-2.1612-.458H367.57a4.3581,4.3581,0,0,0-3.7989,1.6377,6.8861,6.8861,0,0,0-1.1792,4.126,17.5511,17.5511,0,0,0,1.7032,8.0566,15.9592,15.9592,0,0,0,4.65,5.5674,19.6473,19.6473,0,0,0,6.8774,3.2754,32.9342,32.9342,0,0,0,8.5151,1.0479v1.0478H372.81v65.6309h9.8247v1.0478H338.881v-1.0478h9.9561V377.9337H338.881v-1.0478h9.9561q0-7.9893,2.0961-12.9034a18.8,18.8,0,0,1,5.502-7.5986,18.5312,18.5312,0,0,1,7.6631-3.6025,40.7618,40.7618,0,0,1,8.5806-.917q9.432,0,15.1308,5.1748,5.6982,5.1766,5.6983,15.3926Z"/><path class="cls-6" d="M505.5109,384.0909a27.4646,27.4646,0,0,1,1.7031-2.62q.7859-1.0473,1.7026-2.0957a12.778,12.778,0,0,1,1.9654-1.834,20.7647,20.7647,0,0,1,6.6152-3.8,22.8551,22.8551,0,0,1,7.4014-1.1787,52.6351,52.6351,0,0,1,8.122.6553,19.1276,19.1276,0,0,1,7.5982,2.8818,14.5133,14.5133,0,0,1,5.24,6.1572,24.5953,24.5953,0,0,1,1.1133,2.9473,10.5328,10.5328,0,0,1,.4585,3.0781V426.797q0,7.73,1.7686,12.248t6.0913,4.52v1.0478H543.7628a32.9652,32.9652,0,0,1-10.7422-1.5058,17.57,17.57,0,0,1-6.9428-4.1924,15.3916,15.3916,0,0,1-3.7334-6.2227,25.1337,25.1337,0,0,1-1.1138-7.5976v-36.418a23.819,23.819,0,0,0-.5893-5.24,12.1824,12.1824,0,0,0-2.03-4.585,3.925,3.925,0,0,0-2.0308-1.2441,9.5356,9.5356,0,0,0-2.4233-.3282,3.8746,3.8746,0,0,0-2.2271.7207,10.5478,10.5478,0,0,0-1.9648,1.7686,9.6349,9.6349,0,0,0-2.0308,3.9951,55.3378,55.3378,0,0,0-1.4409,6.0264q-.59,3.2109-.8516,6.2226-.2636,3.0147-.2617,4.585v26.2q0,7.73,1.7681,12.248t6.0918,4.52v1.0478H501.7116a32.9611,32.9611,0,0,1-10.7417-1.5058,17.5624,17.5624,0,0,1-6.9429-4.1924,15.3994,15.3994,0,0,1-3.7339-6.2227,25.1494,25.1494,0,0,1-1.1133-7.5976v-36.418a23.8431,23.8431,0,0,0-.5893-5.24,12.1815,12.1815,0,0,0-2.0308-4.585,3.9232,3.9232,0,0,0-2.03-1.2441,9.5394,9.5394,0,0,0-2.4238-.3282,3.8766,3.8766,0,0,0-2.227.7207,10.5672,10.5672,0,0,0-1.9649,1.7686,9.0743,9.0743,0,0,0-1.9648,3.2754,39.4423,39.4423,0,0,0-1.3755,4.5195,37.7941,37.7941,0,0,0-.8516,4.7813,36.341,36.341,0,0,0-.2622,3.93v47.291h9.8252v1.0478h-46.374v-1.0478h9.8252V376.8859H426.78V375.838q3.6658,0,8.9077-.1309,5.2383-.13,10.48-.4589,5.2383-.3252,9.8906-.8516a47.2237,47.2237,0,0,0,7.4014-1.31v11.0039a17.726,17.726,0,0,1,2.2271-3.6679,17.18,17.18,0,0,1,3.144-2.8819,20.7722,20.7722,0,0,1,6.6157-3.8,22.8529,22.8529,0,0,1,7.4014-1.1787,52.6373,52.6373,0,0,1,8.1221.6553A19.13,19.13,0,0,1,498.568,376.1a14.5166,14.5166,0,0,1,5.24,6.1572q.2607.6563.5239,1.375.2614.7223.5239,1.376a2.782,2.782,0,0,1,.5244-.6552A.3788.3788,0,0,0,505.5109,384.0909Z"/><path class="cls-6" d="M587.2536,411.9933q0,5.1093.5244,10.35a28.102,28.102,0,0,0,2.4887,9.3662,17.0626,17.0626,0,0,0,5.6988,6.7461q3.7331,2.622,10.2832,2.62a19.9,19.9,0,0,0,8.3183-1.6367,20.6387,20.6387,0,0,0,6.2881-4.3887,27.2087,27.2087,0,0,0,4.585-6.3535,62.0208,62.0208,0,0,0,3.3408-7.5332l1.31.1318a91.4738,91.4738,0,0,1-3.9956,9.6934,25.7212,25.7212,0,0,1-5.6988,7.7295,24.7511,24.7511,0,0,1-8.7768,5.1084,39.6324,39.6324,0,0,1-12.9693,1.834q-3.5368,0-6.2876-.1309a27.8521,27.8521,0,0,1-5.5678-.8516,35.23,35.23,0,0,1-5.9605-2.1611,57.28,57.28,0,0,1-7.3359-4.1924,27.11,27.11,0,0,1-9.3662-10.61q-3.8658-7.2042-3.8648-17.4229a39.2286,39.2286,0,0,1,2.1616-13.7558,30.1177,30.1177,0,0,1,5.6983-9.6934,29.6905,29.6905,0,0,1,7.86-6.2881,42.2962,42.2962,0,0,1,8.7115-3.6025,48.2813,48.2813,0,0,1,8.2529-1.6377q3.8621-.3926,6.4844-.3926a65.128,65.128,0,0,1,11.3969,1.0479,34.75,34.75,0,0,1,10.6768,3.6679,22.439,22.439,0,0,1,7.86,7.14q3.0761,4.519,3.0786,11.5928a8.7162,8.7162,0,0,1-2.4239,6.5507,15.3394,15.3394,0,0,1-6.0258,3.5371,31.2616,31.2616,0,0,1-7.7945,1.44q-4.1938.2637-7.86.2617H587.2536Zm9.4321-35.7627a6.3269,6.3269,0,0,0-5.1089,2.62,18.1615,18.1615,0,0,0-2.8164,6.2881,43.1568,43.1568,0,0,0-1.2446,8.3183q-.2645,4.519-.2622,8.58v6.9434h11.5283a26.4248,26.4248,0,0,0,2.6855-.2617,6.2059,6.2059,0,0,0,3.4712-1.5723,5.53,5.53,0,0,0,1.2446-2.03,13.0853,13.0853,0,0,0,.6548-2.4892c.1314-.8291.2173-1.5723.2622-2.2266q.0645-.983.0655-1.376a63.5431,63.5431,0,0,0-.8516-11.5283,22.65,22.65,0,0,0-2.2925-6.9424,8.427,8.427,0,0,0-3.2094-3.4062,7.7583,7.7583,0,0,0-3.6026-.917Z"/></svg>