<svg id="Layer_1" data-name="Layer 1" xmlns="http://www.w3.org/2000/svg" viewBox="0 0 1800 800"><defs><style>.cls-1{fill:#be4e29;}.cls-2{fill:#d22d62;}.cls-3{fill:#687834;}.cls-4{fill:#3276a8;}.cls-5{fill:#bc3b96;}.cls-6{fill:#555661;}</style></defs><path class="cls-1" d="M1407.9473,443.94h-2.8516v2.251h2.5977v.6982h-2.5977v3.2422h-.8008v-6.89h3.6524Z"/><path class="cls-1" d="M1412.834,443.11a1.99,1.99,0,0,1,1.7656.916,6.1358,6.1358,0,0,1,.002,5.3193,2.1552,2.1552,0,0,1-3.5274.0029,6.1329,6.1329,0,0,1-.0029-5.32A1.9815,1.9815,0,0,1,1412.834,443.11Zm0,6.45q1.5234,0,1.5234-2.871,0-2.8755-1.5234-2.876a1.2231,1.2231,0,0,0-1.1309.7451,6.08,6.08,0,0,0-.0019,4.2676A1.2217,1.2217,0,0,0,1412.834,449.5605Z"/><path class="cls-1" d="M1419.6348,443.11a1.99,1.99,0,0,1,1.7656.916,6.1353,6.1353,0,0,1,.0019,5.3193,2.1551,2.1551,0,0,1-3.5273.0029,6.1329,6.1329,0,0,1-.0029-5.32A1.9815,1.9815,0,0,1,1419.6348,443.11Zm0,6.45q1.5234,0,1.5234-2.871,0-2.8755-1.5234-2.876a1.223,1.223,0,0,0-1.1309.7451,6.08,6.08,0,0,0-.0019,4.2676A1.2217,1.2217,0,0,0,1419.6348,449.5605Z"/><path class="cls-1" d="M1424.4688,443.2422h1.3574a2.7529,2.7529,0,0,1,2.1679.9209,3.674,3.674,0,0,1,.8155,2.5264,3.6162,3.6162,0,0,1-.8282,2.5419,2.7492,2.7492,0,0,1-2.121.9h-1.3916Zm.8007,6.1914h.5664a1.8682,1.8682,0,0,0,1.5528-.7275,3.8311,3.8311,0,0,0-.003-4.03,1.8606,1.8606,0,0,0-1.55-.7354h-.5664Z"/><path class="cls-2" d="M1408.2744,413.8105a3.214,3.214,0,0,1-1.88.5616,2.392,2.392,0,0,1-2.0332-.918,4.33,4.33,0,0,1-.6963-2.6562,4.4788,4.4788,0,0,1,.6739-2.629,2.35,2.35,0,0,1,2.0556-.95,3.9317,3.9317,0,0,1,.9864.1269,2.4351,2.4351,0,0,1,.7861.3369l-.2637.63a3.0111,3.0111,0,0,0-1.5088-.3906,1.5883,1.5883,0,0,0-1.416.6914,3.9992,3.9992,0,0,0-.4639,2.1846q0,2.871,1.88,2.871a3.2176,3.2176,0,0,0,1.6309-.4882Z"/><path class="cls-2" d="M1412.834,407.2188a1.99,1.99,0,0,1,1.7656.916,6.1358,6.1358,0,0,1,.002,5.3193,2.1552,2.1552,0,0,1-3.5274.0029,6.1329,6.1329,0,0,1-.0029-5.32A1.9815,1.9815,0,0,1,1412.834,407.2188Zm0,6.45q1.5234,0,1.5234-2.871,0-2.8755-1.5234-2.876a1.2231,1.2231,0,0,0-1.1309.7451,6.08,6.08,0,0,0-.0019,4.2676A1.2217,1.2217,0,0,0,1412.834,413.6689Z"/><path class="cls-2" d="M1421.5488,408.0488h-2.8515V410.3h2.5976v.6982h-2.5976V414.24h-.8008v-6.89h3.6523Z"/><path class="cls-2" d="M1428.3506,408.0488h-2.8516V410.3h2.5977v.6982h-2.5977V414.24h-.8008v-6.89h3.6524Z"/><path class="cls-2" d="M1435.0977,414.24h-3.5987v-6.89h3.5694v.6982H1432.3v2.1338h2.6611v.6983H1432.3v2.6611h2.7979Z"/><path class="cls-2" d="M1441.8984,414.24H1438.3v-6.89h3.5693v.6982h-2.7685v2.1338h2.6611v.6983h-2.6611v2.6611h2.7978Z"/><path class="cls-3" d="M1407.6592,374.3774a3.6107,3.6107,0,0,0-1.167-.21,1.6875,1.6875,0,0,0-1.0176.2856.9439.9439,0,0,0-.3935.813q0,.6248,1.03,1.0986.7617.3516,1.0078.4883a2.4977,2.4977,0,0,1,.501.376,1.8523,1.8523,0,0,1,.4072.564,1.6691,1.6691,0,0,1,.1543.73,1.9056,1.9056,0,0,1-.6757,1.56,2.4386,2.4386,0,0,1-1.5948.5542,3.3009,3.3009,0,0,1-1.5576-.3516l.166-.6884a3.4121,3.4121,0,0,0,1.3721.3564,1.6278,1.6278,0,0,0,1.0967-.354,1.2168,1.2168,0,0,0,.4121-.9741,1.1723,1.1723,0,0,0-.2686-.7788,2.8885,2.8885,0,0,0-.9912-.6519q-.7426-.342-.959-.4663a2.0067,2.0067,0,0,1-.4326-.3442,1.6031,1.6031,0,0,1-.332-.4932,1.4959,1.4959,0,0,1-.1172-.5957,1.5929,1.5929,0,0,1,.6152-1.333,2.4635,2.4635,0,0,1,1.5577-.4785,4.5967,4.5967,0,0,1,1.3671.21Z"/><path class="cls-3" d="M1415.5244,374.2651H1413.4v6.24h-.7959v-6.24h-2.1338v-.6494h5.0537Z"/><path class="cls-3" d="M1419.7812,373.4839a1.99,1.99,0,0,1,1.7657.9155,6.1364,6.1364,0,0,1,.0019,5.32,2.1548,2.1548,0,0,1-3.5273.0025,6.1318,6.1318,0,0,1-.0029-5.32A1.98,1.98,0,0,1,1419.7812,373.4839Zm0,6.45q1.5236,0,1.5235-2.8711,0-2.8762-1.5235-2.876a1.2234,1.2234,0,0,0-1.1308.7446,6.08,6.08,0,0,0-.002,4.2676A1.2216,1.2216,0,0,0,1419.7812,379.9341Z"/><path class="cls-3" d="M1429.3271,380.5054h-1.0009l-2.0215-3.13h-.8887v3.13h-.8008v-6.89h1.9483a2.3436,2.3436,0,0,1,1.5508.4761,1.635,1.635,0,0,1,.5683,1.3257,1.6886,1.6886,0,0,1-.415,1.1206,2.0852,2.0852,0,0,1-1.1426.6665Zm-3.9111-3.8282h1.0108a1.513,1.513,0,0,0,1.03-.3442,1.1,1.1,0,0,0,.3955-.8667q0-1.1522-1.4062-1.1523h-1.03Z"/><path class="cls-3" d="M1435.957,373.6157l-2.1533,3.94v2.9492h-.7959v-2.9492l-2.1533-3.94h.9033l1.6455,3.1006,1.65-3.1006Z"/><path class="cls-3" d="M1442.7285,374.2651h-2.124v6.24h-.7959v-6.24h-2.1338v-.6494h5.0537Z"/><path class="cls-3" d="M1448.8457,380.5054h-3.5986v-6.89h3.5693v.6983h-2.7685v2.1338h2.6611v.6982h-2.6611v2.6611h2.7978Z"/><path class="cls-3" d="M1455.7979,380.5054h-3.75v-6.89h.8007v6.1914h2.9493Z"/><path class="cls-3" d="M1462.6,380.5054h-3.75v-6.89h.8008v6.1914H1462.6Z"/><path class="cls-3" d="M1468.9316,380.5054h-3.13v-.6983h1.1865V374.314h-1.1865v-.6983h3.13v.6983h-1.1425v5.4931h1.1425Z"/><path class="cls-3" d="M1476.2793,380.5054h-.8887l-2.4707-5.44v5.44h-.8008v-6.89h.8936l2.48,5.3906v-5.3906h.7861Z"/><path class="cls-3" d="M1483.2217,380.0171a3.0871,3.0871,0,0,1-1.87.62,2.4007,2.4007,0,0,1-2.0362-.9106,4.3466,4.3466,0,0,1-.6933-2.6636,4.4889,4.4889,0,0,1,.6709-2.6367,2.3578,2.3578,0,0,1,2.0586-.9424,3.9132,3.9132,0,0,1,.9863.1269,2.4113,2.4113,0,0,1,.7861.337l-.2636.63a3.0072,3.0072,0,0,0-1.5088-.3906,1.5887,1.5887,0,0,0-1.4141.6934,3.995,3.995,0,0,0-.4658,2.1826q0,2.8712,1.88,2.8711a1.6489,1.6489,0,0,0,1.0693-.2979V377.937h-1.24v-.6933h2.041Z"/><path class="cls-4" d="M1404.2119,337.7241h1.3574a2.7545,2.7545,0,0,1,2.168.92,3.676,3.676,0,0,1,.8154,2.5269,3.6158,3.6158,0,0,1-.8281,2.5415,2.75,2.75,0,0,1-2.1211.9009h-1.3916Zm.8008,6.1914h.5664a1.869,1.869,0,0,0,1.5527-.7275,3.8323,3.8323,0,0,0-.0029-4.0308,1.8617,1.8617,0,0,0-1.55-.7348h-.5664Z"/><path class="cls-4" d="M1414.8408,344.6138h-3.5986v-6.89h3.5693v.6983h-2.7685v2.1338h2.6611v.6982h-2.6611v2.6611h2.7978Z"/><path class="cls-4" d="M1421.2607,338.4858a3.61,3.61,0,0,0-1.1669-.21,1.6875,1.6875,0,0,0-1.0176.2856.9439.9439,0,0,0-.3936.813q0,.6247,1.03,1.0986.7617.3516,1.0078.4883a2.5034,2.5034,0,0,1,.501.376,1.8557,1.8557,0,0,1,.4072.564,1.67,1.67,0,0,1,.1543.73,1.9057,1.9057,0,0,1-.6758,1.56,2.4383,2.4383,0,0,1-1.5947.5542,3.3007,3.3007,0,0,1-1.5576-.3516l.166-.6884a3.4117,3.4117,0,0,0,1.3721.3564,1.6276,1.6276,0,0,0,1.0966-.354,1.2165,1.2165,0,0,0,.4122-.9741,1.1723,1.1723,0,0,0-.2686-.7788,2.89,2.89,0,0,0-.9912-.6519q-.7426-.342-.959-.4663a2.0043,2.0043,0,0,1-.4326-.3442,1.6014,1.6014,0,0,1-.332-.4932,1.4941,1.4941,0,0,1-.1172-.5957,1.5927,1.5927,0,0,1,.6152-1.333,2.4634,2.4634,0,0,1,1.5576-.4785,4.5969,4.5969,0,0,1,1.3672.21Z"/><path class="cls-4" d="M1428.126,344.6138h-3.13v-.6983h1.1865v-5.4931h-1.1865v-.6983h3.13v.6983h-1.1426v5.4931h1.1426Z"/><path class="cls-4" d="M1435.6152,344.1255a3.0869,3.0869,0,0,1-1.87.62,2.4005,2.4005,0,0,1-2.0361-.9106,4.3466,4.3466,0,0,1-.6934-2.6636,4.49,4.49,0,0,1,.6709-2.6367,2.3576,2.3576,0,0,1,2.0586-.9424,3.9132,3.9132,0,0,1,.9863.1269,2.4129,2.4129,0,0,1,.7862.337l-.2637.63a3.0069,3.0069,0,0,0-1.5088-.3906,1.5886,1.5886,0,0,0-1.414.6934,3.994,3.994,0,0,0-.4659,2.1826q0,2.871,1.88,2.8711a1.6492,1.6492,0,0,0,1.0694-.2979v-1.6992h-1.24v-.6933h2.041Z"/><path class="cls-4" d="M1442.2744,344.6138h-.8887l-2.4707-5.44v5.44h-.8007v-6.89h.8935l2.48,5.3906v-5.3906h.7861Z"/><path class="cls-5" d="M1404.4414,301.833h1.7481a2.3937,2.3937,0,0,1,1.5869.4981,1.6914,1.6914,0,0,1,.5957,1.372,1.7843,1.7843,0,0,1-.5928,1.4038,2.2619,2.2619,0,0,1-1.5557.5249h-.9814v3.0909h-.8008Zm.8008,3.1006h.8691q1.4108,0,1.4112-1.1816a1.1194,1.1194,0,0,0-.3838-.8838,1.441,1.441,0,0,0-.9883-.337h-.9082Z"/><path class="cls-5" d="M1415.7246,308.7227h-1.001l-2.0215-3.13h-.8886v3.13h-.8008v-6.89h1.9482a2.3436,2.3436,0,0,1,1.5508.4761,1.635,1.635,0,0,1,.5684,1.3257,1.6882,1.6882,0,0,1-.4151,1.1206,2.085,2.085,0,0,1-1.1425.6665Zm-3.9111-3.8282h1.0107a1.5133,1.5133,0,0,0,1.03-.3442,1.1005,1.1005,0,0,0,.3955-.8667q0-1.1522-1.4062-1.1524h-1.03Z"/><path class="cls-5" d="M1419.7812,301.7012a1.99,1.99,0,0,1,1.7657.9155,6.1364,6.1364,0,0,1,.0019,5.32,2.1548,2.1548,0,0,1-3.5273.0025,6.1321,6.1321,0,0,1-.0029-5.32A1.98,1.98,0,0,1,1419.7812,301.7012Zm0,6.45q1.5236,0,1.5235-2.8711,0-2.8763-1.5235-2.876a1.2233,1.2233,0,0,0-1.1308.7446,6.08,6.08,0,0,0-.002,4.2676A1.2217,1.2217,0,0,0,1419.7812,308.1514Z"/><path class="cls-5" d="M1428.8145,308.2344a3.088,3.088,0,0,1-1.87.62,2.4,2.4,0,0,1-2.0361-.9107,4.346,4.346,0,0,1-.6934-2.6635,4.49,4.49,0,0,1,.6709-2.6367,2.3576,2.3576,0,0,1,2.0586-.9424,3.9134,3.9134,0,0,1,.9864.1269,2.4134,2.4134,0,0,1,.7861.3369l-.2637.63a3.0069,3.0069,0,0,0-1.5088-.3906,1.5886,1.5886,0,0,0-1.414.6934,3.9941,3.9941,0,0,0-.4658,2.1826q0,2.871,1.88,2.8711a1.65,1.65,0,0,0,1.0694-.2979v-1.6992h-1.24v-.6934h2.0411Z"/><path class="cls-5" d="M1436.1279,308.7227h-1.0009l-2.0215-3.13h-.8887v3.13h-.8008v-6.89h1.9483a2.3431,2.3431,0,0,1,1.5507.4761,1.635,1.635,0,0,1,.5684,1.3257,1.6886,1.6886,0,0,1-.415,1.1206,2.0856,2.0856,0,0,1-1.1426.6665Zm-3.9111-3.8282h1.0107a1.5133,1.5133,0,0,0,1.03-.3442,1.1005,1.1005,0,0,0,.3955-.8667q0-1.1522-1.4062-1.1524h-1.03Z"/><path class="cls-5" d="M1442.9385,308.7227h-.84l-.7617-2.4122h-2.2607l-.7715,2.4122h-.83l2.251-6.89h.9619Zm-1.8311-3.11-.9033-2.8516-.8984,2.8516Z"/><path class="cls-5" d="M1449.2168,308.7227h-.7715v-5.9082l-1.04,2.8271h-.7569l-1.04-2.8271v5.9082h-.7715v-6.89h1.04l1.1523,3.14,1.1475-3.14h1.04Z"/><path class="cls-5" d="M1456.0176,308.7227h-.7715v-5.9082l-1.04,2.8271h-.7569l-1.04-2.8271v5.9082h-.7715v-6.89h1.04l1.1524,3.14,1.1474-3.14h1.04Z"/><path class="cls-5" d="M1462.1309,308.7227h-3.13v-.6983h1.1865v-5.4932h-1.1865v-.6982h3.13v.6982h-1.1426v5.4932h1.1426Z"/><path class="cls-5" d="M1469.4785,308.7227h-.8887l-2.4707-5.4395v5.4395h-.8007v-6.89h.8935l2.48,5.3906V301.833h.7861Z"/><path class="cls-5" d="M1476.4209,308.2344a3.0877,3.0877,0,0,1-1.87.62,2.4006,2.4006,0,0,1-2.0362-.9107,4.3461,4.3461,0,0,1-.6933-2.6635,4.4889,4.4889,0,0,1,.6709-2.6367,2.3575,2.3575,0,0,1,2.0586-.9424,3.9132,3.9132,0,0,1,.9863.1269,2.4134,2.4134,0,0,1,.7861.3369l-.2636.63a3.0069,3.0069,0,0,0-1.5088-.3906,1.5887,1.5887,0,0,0-1.4141.6934,3.995,3.995,0,0,0-.4658,2.1826q0,2.871,1.88,2.8711a1.6493,1.6493,0,0,0,1.0693-.2979v-1.6992h-1.24v-.6934h2.041Z"/><g id="Cat_1" data-name="Cat 1"><rect class="cls-5" x="852.6822" y="139.912" width="37.8384" height="37.8384"/><rect class="cls-5" x="901.3316" y="139.912" width="37.8384" height="37.8384"/><rect class="cls-5" x="949.981" y="139.912" width="37.8384" height="37.8384"/><rect class="cls-5" x="998.6305" y="139.912" width="37.8384" height="37.8384"/><rect class="cls-5" x="1047.2799" y="139.912" width="37.8384" height="37.8384"/><rect class="cls-5" x="1095.9293" y="139.912" width="37.8384" height="37.8384"/><rect class="cls-5" x="1144.5787" y="139.912" width="37.8384" height="37.8384"/><rect class="cls-5" x="1193.2281" y="139.912" width="37.8384" height="37.8384"/><rect class="cls-5" x="1241.8776" y="139.912" width="37.8384" height="37.8384"/><rect class="cls-5" x="1290.527" y="139.912" width="37.8384" height="37.8384"/><rect class="cls-5" x="852.6822" y="187.2101" width="37.8384" height="37.8384"/><rect class="cls-5" x="901.3316" y="187.2101" width="37.8384" height="37.8384"/><rect class="cls-5" x="949.981" y="187.2101" width="37.8384" height="37.8384"/><rect class="cls-5" x="998.6305" y="187.2101" width="37.8384" height="37.8384"/><rect class="cls-5" x="1047.2799" y="187.2101" width="37.8384" height="37.8384"/><rect class="cls-5" x="1095.9293" y="187.2101" width="37.8384" height="37.8384"/><rect class="cls-5" x="1144.5787" y="187.2101" width="37.8384" height="37.8384"/><rect class="cls-5" x="1193.2281" y="187.2101" width="37.8384" height="37.8384"/><rect class="cls-5" x="1241.8776" y="187.2101" width="37.8384" height="37.8384"/><rect class="cls-5" x="1290.527" y="187.2101" width="37.8384" height="37.8384"/><rect class="cls-5" x="852.6822" y="234.5081" width="37.8384" height="37.8384"/><rect class="cls-5" x="901.3316" y="234.5081" width="37.8384" height="37.8384"/><rect class="cls-5" x="949.981" y="234.5081" width="37.8384" height="37.8384"/><rect class="cls-5" x="998.6305" y="234.5081" width="37.8384" height="37.8384"/><rect class="cls-5" x="1047.2799" y="234.5081" width="37.8384" height="37.8384"/><rect class="cls-5" x="1095.9293" y="234.5081" width="37.8384" height="37.8384"/><rect class="cls-5" x="1144.5787" y="234.5081" width="37.8384" height="37.8384"/><rect class="cls-5" x="1193.2281" y="234.5081" width="37.8384" height="37.8384"/><rect class="cls-5" x="1241.8776" y="234.5081" width="37.8384" height="37.8384"/><rect class="cls-5" x="1290.527" y="234.5081" width="37.8384" height="37.8384"/><rect class="cls-5" x="852.6822" y="281.8062" width="37.8384" height="37.8384"/><rect class="cls-5" x="901.3316" y="281.8062" width="37.8384" height="37.8384"/><rect class="cls-5" x="949.981" y="281.8062" width="37.8384" height="37.8384"/></g><rect class="cls-1" x="1378.3947" y="438.5833" width="16.2888" height="16.2888"/><rect class="cls-2" x="1378.3947" y="403.4206" width="16.2888" height="16.2888"/><rect class="cls-3" x="1378.3947" y="368.2579" width="16.2888" height="16.2888"/><rect class="cls-4" x="1378.3947" y="333.0952" width="16.2888" height="16.2888"/><rect class="cls-5" x="1378.3947" y="297.9324" width="16.2888" height="16.2888"/><g id="Cat_2" data-name="Cat 2"><rect class="cls-4" x="998.6305" y="281.8062" width="37.8384" height="37.8384"/><rect class="cls-4" x="1047.2799" y="281.8062" width="37.8384" height="37.8384"/><rect class="cls-4" x="1095.9293" y="281.8062" width="37.8384" height="37.8384"/><rect class="cls-4" x="1144.5787" y="281.8062" width="37.8384" height="37.8384"/><rect class="cls-4" x="1193.2281" y="281.8062" width="37.8384" height="37.8384"/><rect class="cls-4" x="1241.8776" y="281.8062" width="37.8384" height="37.8384"/><rect class="cls-4" x="1290.527" y="281.8062" width="37.8384" height="37.8384"/><rect class="cls-4" x="852.6822" y="329.1042" width="37.8384" height="37.8384"/><rect class="cls-4" x="901.3316" y="329.1042" width="37.8384" height="37.8384"/><rect class="cls-4" x="949.981" y="329.1042" width="37.8384" height="37.8384"/><rect class="cls-4" x="998.6305" y="329.1042" width="37.8384" height="37.8384"/><rect class="cls-4" x="1047.2799" y="329.1042" width="37.8384" height="37.8384"/><rect class="cls-4" x="1095.9293" y="329.1042" width="37.8384" height="37.8384"/><rect class="cls-4" x="1144.5787" y="329.1042" width="37.8384" height="37.8384"/><rect class="cls-4" x="1193.2281" y="329.1042" width="37.8384" height="37.8384"/><rect class="cls-4" x="1241.8776" y="329.1042" width="37.8384" height="37.8384"/><rect class="cls-4" x="1290.527" y="329.1042" width="37.8384" height="37.8384"/><rect class="cls-4" x="852.6822" y="376.4023" width="37.8384" height="37.8384"/><rect class="cls-4" x="901.3316" y="376.4023" width="37.8384" height="37.8384"/><rect class="cls-4" x="949.981" y="376.4023" width="37.8384" height="37.8384"/><rect class="cls-4" x="998.6305" y="376.4023" width="37.8384" height="37.8384"/><rect class="cls-4" x="1047.2799" y="376.4023" width="37.8384" height="37.8384"/><rect class="cls-4" x="1095.9293" y="376.4023" width="37.8384" height="37.8384"/><rect class="cls-4" x="1144.5787" y="376.4023" width="37.8384" height="37.8384"/><rect class="cls-4" x="1193.2281" y="376.4023" width="37.8384" height="37.8384"/><rect class="cls-4" x="1241.8776" y="376.4023" width="37.8384" height="37.8384"/><rect class="cls-4" x="1290.527" y="376.4023" width="37.8384" height="37.8384"/><rect class="cls-4" x="852.6822" y="423.7003" width="37.8384" height="37.8384"/><rect class="cls-4" x="901.3316" y="423.7003" width="37.8384" height="37.8384"/><rect class="cls-4" x="949.981" y="423.7003" width="37.8384" height="37.8384"/><rect class="cls-4" x="998.6305" y="423.7003" width="37.8384" height="37.8384"/><rect class="cls-4" x="1047.2799" y="423.7003" width="37.8384" height="37.8384"/></g><g id="Cat_3" data-name="Cat 3"><rect class="cls-3" x="1095.9293" y="423.7003" width="37.8384" height="37.8384"/><rect class="cls-3" x="1144.5787" y="423.7003" width="37.8384" height="37.8384"/><rect class="cls-3" x="1193.2281" y="423.7003" width="37.8384" height="37.8384"/><rect class="cls-3" x="1241.8776" y="423.7003" width="37.8384" height="37.8384"/><rect class="cls-3" x="1290.527" y="423.7003" width="37.8384" height="37.8384"/><rect class="cls-3" x="852.6822" y="470.9984" width="37.8384" height="37.8384"/><rect class="cls-3" x="901.3316" y="470.9984" width="37.8384" height="37.8384"/><rect class="cls-3" x="949.981" y="470.9984" width="37.8384" height="37.8384"/><rect class="cls-3" x="998.6305" y="470.9984" width="37.8384" height="37.8384"/><rect class="cls-3" x="1047.2799" y="470.9984" width="37.8384" height="37.8384"/><rect class="cls-3" x="1095.9293" y="470.9984" width="37.8384" height="37.8384"/><rect class="cls-3" x="1144.5787" y="470.9984" width="37.8384" height="37.8384"/><rect class="cls-3" x="1193.2281" y="470.9984" width="37.8384" height="37.8384"/><rect class="cls-3" x="1241.8776" y="470.9984" width="37.8384" height="37.8384"/><rect class="cls-3" x="1290.527" y="470.9984" width="37.8384" height="37.8384"/><rect class="cls-3" x="852.6822" y="518.2964" width="37.8384" height="37.8384"/><rect class="cls-3" x="901.3316" y="518.2964" width="37.8384" height="37.8384"/><rect class="cls-3" x="949.981" y="518.2964" width="37.8384" height="37.8384"/><rect class="cls-3" x="998.6305" y="518.2964" width="37.8384" height="37.8384"/><rect class="cls-3" x="1047.2799" y="518.2964" width="37.8384" height="37.8384"/></g><g id="Cat_4" data-name="Cat 4"><rect class="cls-2" x="1095.9293" y="518.2964" width="37.8384" height="37.8384"/><rect class="cls-2" x="1144.5787" y="518.2964" width="37.8384" height="37.8384"/><rect class="cls-2" x="1193.2281" y="518.2964" width="37.8384" height="37.8384"/><rect class="cls-2" x="1241.8776" y="518.2964" width="37.8384" height="37.8384"/><rect class="cls-2" x="1290.527" y="518.2964" width="37.8384" height="37.8384"/><rect class="cls-2" x="852.6822" y="565.5944" width="37.8384" height="37.8384"/><rect class="cls-2" x="901.3316" y="565.5944" width="37.8384" height="37.8384"/></g><g id="Cat_5" data-name="Cat 5"><rect class="cls-1" x="949.981" y="565.5944" width="37.8384" height="37.8384"/><rect class="cls-1" x="998.6305" y="565.5944" width="37.8384" height="37.8384"/><rect class="cls-1" x="1047.2799" y="565.5944" width="37.8384" height="37.8384"/><rect class="cls-1" x="1095.9293" y="565.5944" width="37.8384" height="37.8384"/><rect class="cls-1" x="1144.5787" y="565.5944" width="37.8384" height="37.8384"/><rect class="cls-1" x="1193.2281" y="565.5944" width="37.8384" height="37.8384"/><rect class="cls-1" x="1241.8776" y="565.5944" width="37.8384" height="37.8384"/><rect class="cls-1" x="1290.527" y="565.5944" width="37.8384" height="37.8384"/></g><path class="cls-6" d="M297.2671,366.9429a31.0415,31.0415,0,0,1-12.2485-2.1617,26.2066,26.2066,0,0,1-8.7769-6.0913,38.2617,38.2617,0,0,1-6.4849-9.4975q-2.7508-5.5665-5.5019-12.3794H235.3042l-6.812,23.9726a2.6537,2.6537,0,0,0-.1314.8516v.8516a3.7557,3.7557,0,0,0,.7862,2.4238,3.1641,3.1641,0,0,0,2.62.9824H238.71v1.0479H211.3311V365.895h7.4668a8.6908,8.6908,0,0,0,4.9125-1.6377,7.7142,7.7142,0,0,0,3.21-4.3886l20.043-66.1548q-1.4428-2.4873-3.34-5.5674a46.74,46.74,0,0,0-4.1265-5.6987,28.649,28.649,0,0,0-4.585-4.3882,7.692,7.692,0,0,0-4.5849-1.7686v-1.0483h23.7109a19.8321,19.8321,0,0,1,8.5806,1.7685,24.8391,24.8391,0,0,1,6.55,4.4541,28.4734,28.4734,0,0,1,4.7817,5.96,45.9327,45.9327,0,0,1,3.1441,6.1572q1.9642,4.7161,4.2573,10.3486,2.29,5.6346,4.8472,11.7246,2.5539,6.0917,5.1743,12.2486,2.6192,6.1588,4.978,11.79,5.6309,13.3623,11.5278,27.2481Zm-61.57-31.1783H263.731l-15.982-39.8237Z"/><path class="cls-6" d="M394.4673,366.9429H382.94a33.5638,33.5638,0,0,1-10.8077-1.5064,18.716,18.716,0,0,1-7.14-4.1924,15.3864,15.3864,0,0,1-3.93-6.2221,23.8746,23.8746,0,0,1-1.1792-7.5982V311.0059a23.837,23.837,0,0,0-.5894-5.24,12.1861,12.1861,0,0,0-2.0307-4.5854,3.9276,3.9276,0,0,0-2.03-1.2442,9.56,9.56,0,0,0-2.4238-.3276,3.8733,3.8733,0,0,0-2.2271.7207,10.56,10.56,0,0,0-1.9648,1.7681,9.0806,9.0806,0,0,0-1.9649,3.2753,39.4749,39.4749,0,0,0-1.3754,4.52,37.8275,37.8275,0,0,0-.8516,4.7812,36.3187,36.3187,0,0,0-.2622,3.93v47.291h9.8252v1.0479h-46.374V365.895H317.44V300.2637h-9.9561v-1.0479q3.6657,0,8.9077-.1308,5.2383-.129,10.48-.4585,5.2383-.326,9.8906-.8516a47.2058,47.2058,0,0,0,7.4014-1.31v9.9561a17.7377,17.7377,0,0,1,2.227-3.668,17.187,17.187,0,0,1,3.1441-2.8818,20.7686,20.7686,0,0,1,6.6157-3.7993,22.85,22.85,0,0,1,7.4014-1.1787,57.8488,57.8488,0,0,1,8.3838.6548,19.3392,19.3392,0,0,1,7.86,2.8818,14.5125,14.5125,0,0,1,5.24,6.1572,24.5168,24.5168,0,0,1,1.1137,2.9473,10.5549,10.5549,0,0,1,.4585,3.0786V349.127q0,7.7307,1.7686,12.2485t6.0913,4.5195Z"/><path class="cls-6" d="M470.4468,365.895v1.0479H436.6489v-8.1221l-.917.5239q-4.8486,2.751-10.7422,5.4365a27.9486,27.9486,0,0,1-11.6591,2.6856h-.6548a14.3564,14.3564,0,0,1-5.3711-1.0479,14.9366,14.9366,0,0,1-4.7158-3.0131,14.3074,14.3074,0,0,1-3.3409-4.8467,16.3481,16.3481,0,0,1-1.2441-6.55,12.7267,12.7267,0,0,1,.6548-4.061,17.4822,17.4822,0,0,1,1.7031-3.668,15.1359,15.1359,0,0,1,2.4888-2.9473,40.5108,40.5108,0,0,1,3.7993-3.2095q2.094-1.5724,4.3882-3.0786,2.29-1.5044,4.5195-2.6855,4.9769-2.88,10.5454-5.6328,5.5665-2.751,10.5459-5.3711V318.08a59.474,59.474,0,0,0-.393-6.812,17.4842,17.4842,0,0,0-1.834-6.1573,11.579,11.579,0,0,0-4.1265-4.4541,13.2084,13.2084,0,0,0-7.14-1.7026,26.9381,26.9381,0,0,0-3.2095.1963,10.3724,10.3724,0,0,0-3.0786.8516,6.3409,6.3409,0,0,0-2.1616,1.6372,3.9358,3.9358,0,0,0,.5239,5.6987,38.0841,38.0841,0,0,0,3.4062,2.3579,17.4667,17.4667,0,0,1,3.4058,2.751,5.6334,5.6334,0,0,1,1.5068,4.061,8.0788,8.0788,0,0,1-2.8164,6.55,9.8154,9.8154,0,0,1-6.4848,2.3579,11.8527,11.8527,0,0,1-4.3882-.8515,13.24,13.24,0,0,1-6.812-6.0918,9.6042,9.6042,0,0,1-1.1138-4.585,11.8183,11.8183,0,0,1,3.2095-8.646,22.2059,22.2059,0,0,1,7.9257-5.1089A39.6053,39.6053,0,0,1,423.09,297.71a86.88,86.88,0,0,1,9.4976-.59,54.2609,54.2609,0,0,1,9.8247.9175,29.9891,29.9891,0,0,1,9.0391,3.1436,18.6344,18.6344,0,0,1,6.6811,6.2226,17.9238,17.9238,0,0,1,2.62,10.0215v48.47ZM431.9326,360q1.0475-.5222,2.3579-1.1792,1.3082-.654,2.3584-1.31V322.665a17.253,17.253,0,0,0-5.24,3.7334,24.6374,24.6374,0,0,0-3.9956,5.4366,28.9885,28.9885,0,0,0-2.5542,6.4843,26.8091,26.8091,0,0,0-.917,6.8775v8.122a7.2753,7.2753,0,0,0,1.9648,4.7818,5.6663,5.6663,0,0,0,4.3228,2.2925A3.7619,3.7619,0,0,0,431.9326,360Z"/><path class="cls-6" d="M504.6357,356.332a16.0553,16.0553,0,0,0,3.4063,5.6983,11.8473,11.8473,0,0,0,4.4536,3.0132,13.4291,13.4291,0,0,0,4.5855.8515v1.0479H502.4087a54.8606,54.8606,0,0,1-10.8731-.917,16.55,16.55,0,0,1-7.2045-3.1441,12.154,12.154,0,0,1-3.93-5.96,32.1077,32.1077,0,0,1-1.1792-9.4976v-47.16H469.397v-1.0479h4.1919a22.4747,22.4747,0,0,0,10.6762-2.751,36.2286,36.2286,0,0,0,9.1045-6.812,38.5766,38.5766,0,0,0,6.3535-8.5805,17.2981,17.2981,0,0,0,2.4239-7.9253h1.1787v26.0688H514.854v1.0479H503.3257V347.293A26.3694,26.3694,0,0,0,504.6357,356.332Z"/><path class="cls-6" d="M581.4014,304.5869a28.34,28.34,0,0,1,9.3667,10.6763q3.862,7.1418,3.8642,17.3579,0,10.218-3.8642,17.4228a27.1359,27.1359,0,0,1-9.3667,10.6109,67.8819,67.8819,0,0,1-7.14,4.1919,32.8558,32.8558,0,0,1-5.5019,2.1616,23.2457,23.2457,0,0,1-5.1089.8516q-2.5546.1289-6.0913.1308h-1.31q-3.5368,0-6.2226-.1308a26.6466,26.6466,0,0,1-5.4366-.8516,34.1187,34.1187,0,0,1-5.83-2.1616,60.23,60.23,0,0,1-7.2705-4.1919,27.1155,27.1155,0,0,1-9.3662-10.6109q-3.8656-7.2033-3.8647-17.4228t3.8647-17.3579a28.3177,28.3177,0,0,1,9.3662-10.6763,63.9,63.9,0,0,1,7.2051-4.1919,35.3392,35.3392,0,0,1,5.5679-2.1616,23.2437,23.2437,0,0,1,5.1089-.8516q2.5539-.1288,6.0913-.1308H557.56q3.5368,0,6.0913.1308a23.2457,23.2457,0,0,1,5.1089.8516,33.2481,33.2481,0,0,1,5.5019,2.1616A68.2179,68.2179,0,0,1,581.4014,304.5869Zm-17.5537,58.4258a14.9968,14.9968,0,0,0,1.9648-4.7813,53.6329,53.6329,0,0,0,1.2446-7.0742q.457-3.9939.5894-8.7114.1289-4.716.1308-9.8247,0-5.1094-.1962-9.8252t-.6553-8.7114a40.0693,40.0693,0,0,0-1.3755-7.0088,11.8631,11.8631,0,0,0-2.3579-4.585q-2.8829-3.1436-4.3887-3.6679a7.7546,7.7546,0,0,0-2.2925-.524,8.3775,8.3775,0,0,0-2.3579.524q-1.5717.5252-4.3227,3.6679a11.8089,11.8089,0,0,0-2.3579,4.585,43.6462,43.6462,0,0,0-1.4415,7.0088,85.046,85.046,0,0,0-.6547,8.7114q-.1318,4.716-.1309,9.8252t.1309,9.8247a84.9936,84.9936,0,0,0,.6547,8.7114,43.5567,43.5567,0,0,0,1.4415,7.0088,13.1427,13.1427,0,0,0,2.3579,4.7158,15.251,15.251,0,0,0,3.7334,3.0132,6.8006,6.8006,0,0,0,2.9472,1.0479H557.56Q561.0965,366.9429,563.8477,363.0127Z"/><path class="cls-6" d="M676.6367,306.4209a27.4713,27.4713,0,0,1,1.7031-2.62q.786-1.0467,1.7027-2.0957a12.7876,12.7876,0,0,1,1.9653-1.834,20.7611,20.7611,0,0,1,6.6152-3.7993,22.8524,22.8524,0,0,1,7.4014-1.1787,52.685,52.685,0,0,1,8.1221.6548,19.1406,19.1406,0,0,1,7.5981,2.8818,14.5136,14.5136,0,0,1,5.24,6.1572,24.5989,24.5989,0,0,1,1.1132,2.9473,10.5382,10.5382,0,0,1,.4585,3.0786V349.127q0,7.7307,1.7686,12.2485t6.0913,4.5195v1.0479H714.8887a32.96,32.96,0,0,1-10.7422-1.5064,17.5673,17.5673,0,0,1-6.9429-4.1924,15.39,15.39,0,0,1-3.7334-6.2221,25.1431,25.1431,0,0,1-1.1138-7.5982V311.0059a23.8067,23.8067,0,0,0-.5893-5.24,12.1855,12.1855,0,0,0-2.03-4.5854,3.9287,3.9287,0,0,0-2.0307-1.2442,9.5579,9.5579,0,0,0-2.4234-.3276,3.8707,3.8707,0,0,0-2.227.7207,10.5447,10.5447,0,0,0-1.9649,1.7681,9.6368,9.6368,0,0,0-2.0307,3.9956,55.3082,55.3082,0,0,0-1.441,6.0258q-.59,3.2118-.8515,6.2227-.2637,3.0155-.2617,4.585v26.2q0,7.7307,1.768,12.2485t6.0918,4.5195v1.0479H672.8374a32.9571,32.9571,0,0,1-10.7417-1.5064,17.5608,17.5608,0,0,1-6.9429-4.1924,15.3977,15.3977,0,0,1-3.7339-6.2221,25.1588,25.1588,0,0,1-1.1132-7.5982V311.0059a23.837,23.837,0,0,0-.5894-5.24,12.1862,12.1862,0,0,0-2.0308-4.5854,3.9273,3.9273,0,0,0-2.03-1.2442,9.5611,9.5611,0,0,0-2.4239-.3276,3.873,3.873,0,0,0-2.227.7207,10.5569,10.5569,0,0,0-1.9648,1.7681,9.0778,9.0778,0,0,0-1.9649,3.2753,39.4947,39.4947,0,0,0-1.3755,4.52,37.8448,37.8448,0,0,0-.8515,4.7812,36.3223,36.3223,0,0,0-.2623,3.93v47.291h9.8252v1.0479h-46.374V365.895h9.8252V299.2158h-9.956V298.168q3.6657,0,8.9077-.1309,5.2383-.13,10.48-.4585,5.2382-.3259,9.8906-.8515a47.2255,47.2255,0,0,0,7.4013-1.31v11.0039a17.742,17.742,0,0,1,2.2271-3.668,17.1861,17.1861,0,0,1,3.144-2.8818,20.7679,20.7679,0,0,1,6.6158-3.7993,22.85,22.85,0,0,1,7.4013-1.1787,52.684,52.684,0,0,1,8.1221.6548,19.1435,19.1435,0,0,1,7.5981,2.8818,14.5146,14.5146,0,0,1,5.24,6.1572q.2607.657.5239,1.3755.2614.7215.5239,1.3755a2.7853,2.7853,0,0,1,.5245-.6548A.3806.3806,0,0,0,676.6367,306.4209Z"/><path class="cls-6" d="M807.2422,299.2158v1.0479h-1.7031a14.8528,14.8528,0,0,0-5.502.8515,9.6281,9.6281,0,0,0-3.4062,2.2271,10.7592,10.7592,0,0,0-2.03,2.9477q-.7215,1.5718-1.2446,3.0127l-28.0337,70.74a21.441,21.441,0,0,1-3.7994,6.0258,25.2673,25.2673,0,0,1-5.1088,4.3887,23.7689,23.7689,0,0,1-5.6329,2.6856,17.49,17.49,0,0,1-5.24.917,11.892,11.892,0,0,1-4.3882-.8516,12.3184,12.3184,0,0,1-6.6157-6.1572,10.7949,10.7949,0,0,1-1.0478-4.7813,11.5477,11.5477,0,0,1,.9824-4.7163,12.007,12.007,0,0,1,2.6855-3.8642,13.39,13.39,0,0,1,3.93-2.62,11.8647,11.8647,0,0,1,10.7422.6553,10.4643,10.4643,0,0,1,4.1919,4.7813l2.227,4.8471q1.0474,1.8326,2.2271,1.834a2.5045,2.5045,0,0,0,1.834-1.1138,21.1317,21.1317,0,0,0,1.5718-2.1611l5.1093-12.9692q-1.05-1.9652-3.0786-5.83-2.0325-3.8621-4.7158-8.9077-2.6865-5.0421-5.83-10.8731-3.1443-5.8278-6.4189-11.5937-3.2762-5.7627-6.4849-11.0694-3.2109-5.3057-6.0259-9.4321a54.2811,54.2811,0,0,0-5.1089-6.55q-2.2939-2.4228-3.6025-2.4238h-.917v-1.0479h4.061q7.4672,0,12.7725.1968a36.2389,36.2389,0,0,1,9.17,1.3755,18.8443,18.8443,0,0,1,6.6812,3.5366,22.8889,22.8889,0,0,1,5.1743,6.6812l15.72,28.6889,11.6587-30.13a7.7956,7.7956,0,0,0,.59-2.2924c.043-.6553.0655-1.2.0655-1.6377a5.79,5.79,0,0,0-.6553-2.9473,4.4118,4.4118,0,0,0-1.5718-1.6377,5.2692,5.2692,0,0,0-1.9648-.6548,15.3471,15.3471,0,0,0-1.834-.1313h-2.62v-1.0479Z"/><path class="cls-6" d="M492.7158,431.5869a28.3326,28.3326,0,0,1,9.3667,10.6758q3.8621,7.1426,3.8643,17.3584,0,10.2172-3.8643,17.4228a27.1291,27.1291,0,0,1-9.3667,10.61,67.9085,67.9085,0,0,1-7.14,4.1924,32.8548,32.8548,0,0,1-5.502,2.1611,23.2142,23.2142,0,0,1-5.1089.8516q-2.5546.1288-6.0913.1308h-1.31q-3.5369,0-6.2227-.1308a26.6122,26.6122,0,0,1-5.4365-.8516,34.1143,34.1143,0,0,1-5.83-2.1611,60.2346,60.2346,0,0,1-7.27-4.1924,27.11,27.11,0,0,1-9.3662-10.61q-3.8658-7.2041-3.8648-17.4228t3.8648-17.3584a28.3113,28.3113,0,0,1,9.3662-10.6758,63.9054,63.9054,0,0,1,7.2051-4.1924,35.2836,35.2836,0,0,1,5.5678-2.1611,23.2162,23.2162,0,0,1,5.1089-.8516q2.554-.1288,6.0913-.1308h2.0962q3.5368,0,6.0913.1308a23.2142,23.2142,0,0,1,5.1089.8516,33.2031,33.2031,0,0,1,5.502,2.1611A68.2448,68.2448,0,0,1,492.7158,431.5869Zm-17.5537,58.4258a14.9967,14.9967,0,0,0,1.9649-4.7813,53.6477,53.6477,0,0,0,1.2446-7.0742q.4571-3.9946.5893-8.7119.129-4.7152.1309-9.8242,0-5.1094-.1963-9.8252t-.6553-8.7119a40.06,40.06,0,0,0-1.3755-7.0088,11.8654,11.8654,0,0,0-2.3579-4.585q-2.8827-3.1436-4.3886-3.6679a7.75,7.75,0,0,0-2.2925-.5235,8.3717,8.3717,0,0,0-2.3579.5235q-1.5719.5259-4.3228,3.6679a11.8139,11.8139,0,0,0-2.3579,4.585,43.6474,43.6474,0,0,0-1.4414,7.0088,85.0724,85.0724,0,0,0-.6548,8.7119q-.1318,4.7154-.1308,9.8252,0,5.108.1308,9.8242a85.0308,85.0308,0,0,0,.6548,8.7119,43.5579,43.5579,0,0,0,1.4414,7.0088,13.1443,13.1443,0,0,0,2.3579,4.7158,15.2618,15.2618,0,0,0,3.7334,3.0127,6.7946,6.7946,0,0,0,2.9473,1.0479h1.0483Q472.4109,493.9424,475.1621,490.0127Z"/><path class="cls-6" d="M558.3452,421.7617q-1.7043,0-4.7163-.1963a21.1268,21.1268,0,0,1-5.895-1.2451,13.6216,13.6216,0,0,1-5.0435-3.209,8.2383,8.2383,0,0,1-2.1611-6.0918,6.54,6.54,0,0,1,1.0478-3.6025,5.9474,5.9474,0,0,0,1.0479-3.209,1.39,1.39,0,0,0-.8516-1.2451,4.5482,4.5482,0,0,0-2.1611-.458h-.6553a4.3579,4.3579,0,0,0-3.7988,1.6377,6.8861,6.8861,0,0,0-1.1792,4.126,17.5524,17.5524,0,0,0,1.7031,8.0566,15.96,15.96,0,0,0,4.65,5.5674,19.65,19.65,0,0,0,6.8775,3.2754,32.9343,32.9343,0,0,0,8.5151,1.0478v1.0479H544.1973v65.6308h9.8247v1.0479H510.2681v-1.0479h9.956V427.2637h-9.956v-1.0479h9.956q0-7.9893,2.0962-12.9033a18.799,18.799,0,0,1,5.502-7.5986,18.5314,18.5314,0,0,1,7.6631-3.6026,40.7682,40.7682,0,0,1,8.5805-.917q9.4321,0,15.1309,5.1748,5.6982,5.1768,5.6982,15.3926Z"/><path class="cls-6" d="M676.8979,433.4209a27.47,27.47,0,0,1,1.7032-2.62q.7859-1.0474,1.7026-2.0957a12.7675,12.7675,0,0,1,1.9653-1.834,20.7621,20.7621,0,0,1,6.6153-3.8,22.8545,22.8545,0,0,1,7.4013-1.1787,52.6239,52.6239,0,0,1,8.1221.6553,19.1276,19.1276,0,0,1,7.5982,2.8818,14.5127,14.5127,0,0,1,5.24,6.1572,24.6165,24.6165,0,0,1,1.1133,2.9473,10.5328,10.5328,0,0,1,.4585,3.0781V476.127q0,7.73,1.7685,12.248t6.0913,4.5195v1.0479H715.15a32.9614,32.9614,0,0,1-10.7422-1.5059,17.568,17.568,0,0,1-6.9429-4.1924,15.3928,15.3928,0,0,1-3.7334-6.2226,25.1375,25.1375,0,0,1-1.1137-7.5977V438.0059a23.8147,23.8147,0,0,0-.5894-5.24,12.1781,12.1781,0,0,0-2.03-4.5849,3.9255,3.9255,0,0,0-2.0307-1.2442,9.5406,9.5406,0,0,0-2.4234-.3281,3.8743,3.8743,0,0,0-2.227.7207,10.5443,10.5443,0,0,0-1.9648,1.7686,9.6331,9.6331,0,0,0-2.0308,3.9951,55.295,55.295,0,0,0-1.4409,6.0263q-.59,3.2111-.8516,6.2227-.2637,3.0147-.2617,4.585v26.2q0,7.73,1.7681,12.248t6.0918,4.5195v1.0479H673.0986a32.9586,32.9586,0,0,1-10.7417-1.5059,17.56,17.56,0,0,1-6.9428-4.1924,15.3973,15.3973,0,0,1-3.7339-6.2226,25.15,25.15,0,0,1-1.1133-7.5977V438.0059a23.8448,23.8448,0,0,0-.5894-5.24,12.18,12.18,0,0,0-2.0307-4.5849,3.9244,3.9244,0,0,0-2.03-1.2442,9.5442,9.5442,0,0,0-2.4238-.3281,3.8769,3.8769,0,0,0-2.2271.7207,10.56,10.56,0,0,0-1.9648,1.7686,9.0748,9.0748,0,0,0-1.9649,3.2753,39.4641,39.4641,0,0,0-1.3755,4.52,37.8131,37.8131,0,0,0-.8515,4.7812,36.3184,36.3184,0,0,0-.2622,3.93v47.291h9.8252v1.0479h-46.374v-1.0479h9.8251V426.2158h-9.956V425.168q3.6657,0,8.9077-.1309,5.2383-.13,10.48-.459,5.2383-.3252,9.8906-.8515a47.2377,47.2377,0,0,0,7.4014-1.31v11.0039a17.7243,17.7243,0,0,1,2.227-3.668,17.187,17.187,0,0,1,3.1441-2.8818,20.77,20.77,0,0,1,6.6157-3.8,22.8525,22.8525,0,0,1,7.4014-1.1787,52.6236,52.6236,0,0,1,8.122.6553,19.13,19.13,0,0,1,7.5982,2.8818,14.5151,14.5151,0,0,1,5.24,6.1572q.2609.6563.524,1.375.2615.7222.5239,1.376a2.7821,2.7821,0,0,1,.5244-.6553A.3786.3786,0,0,0,676.8979,433.4209Z"/><path class="cls-6" d="M758.6406,461.3232q0,5.1094.5244,10.35a28.1044,28.1044,0,0,0,2.4888,9.3662,17.0645,17.0645,0,0,0,5.6987,6.7461q3.7332,2.622,10.2832,2.62a19.9022,19.9022,0,0,0,8.3184-1.6367,20.6387,20.6387,0,0,0,6.2881-4.3887,27.2083,27.2083,0,0,0,4.5849-6.3535,62.0058,62.0058,0,0,0,3.3409-7.5332l1.31.1318a91.4527,91.4527,0,0,1-3.9956,9.6934,25.72,25.72,0,0,1-5.6987,7.73,24.7514,24.7514,0,0,1-8.7769,5.1083,39.6291,39.6291,0,0,1-12.9692,1.834q-3.5368,0-6.2876-.1308a27.8531,27.8531,0,0,1-5.5679-.8516,35.2294,35.2294,0,0,1-5.96-2.1611,57.3,57.3,0,0,1-7.336-4.1924,27.11,27.11,0,0,1-9.3662-10.61q-3.8656-7.2041-3.8647-17.4228a39.2291,39.2291,0,0,1,2.1616-13.7559,30.1152,30.1152,0,0,1,5.6982-9.6933,29.6909,29.6909,0,0,1,7.86-6.2881,42.296,42.296,0,0,1,8.7114-3.6026,48.2816,48.2816,0,0,1,8.253-1.6376q3.8621-.3927,6.4843-.3926a65.1384,65.1384,0,0,1,11.397,1.0478,34.75,34.75,0,0,1,10.6768,3.668,22.4376,22.4376,0,0,1,7.86,7.14q3.0762,4.519,3.0786,11.5928a8.7168,8.7168,0,0,1-2.4238,6.5508,15.3391,15.3391,0,0,1-6.0259,3.5371,31.2562,31.2562,0,0,1-7.7944,1.44q-4.1939.2637-7.86.2618H758.6406Zm9.4322-35.7627a6.3268,6.3268,0,0,0-5.1089,2.62,18.1561,18.1561,0,0,0-2.8164,6.2881,43.1632,43.1632,0,0,0-1.2447,8.3183q-.2643,4.519-.2622,8.58v6.9433h11.5283a26.3927,26.3927,0,0,0,2.6856-.2617,6.2054,6.2054,0,0,0,3.4712-1.5722,5.5321,5.5321,0,0,0,1.2446-2.03,13.0918,13.0918,0,0,0,.6548-2.4893c.1313-.8291.2173-1.5722.2622-2.2265q.0645-.983.0654-1.376a63.5443,63.5443,0,0,0-.8515-11.5283,22.6512,22.6512,0,0,0-2.2925-6.9424,8.4275,8.4275,0,0,0-3.2095-3.4063,7.7591,7.7591,0,0,0-3.6025-.917Z"/></svg>